<svg xmlns="http://www.w3.org/2000/svg" width="787.779" height="165.347" viewBox="0 0 787.779 165.347">
  <g id="Group_990" data-name="Group 990" transform="translate(-1.001 -2.309)">
    <g id="Group_987" data-name="Group 987" transform="translate(193.969 9.573)">
      <path id="Path_940" data-name="Path 940" d="M63.127,45.044c-2.81-.94-5.291-1.875-7.373-2.792a26.349,26.349,0,0,1-5.325-3.041,11,11,0,0,1-3.237-3.819,11.417,11.417,0,0,1-1.1-5.152,12.33,12.33,0,0,1,3.773-8.96c2.515-2.5,6.318-3.773,11.308-3.773a26.055,26.055,0,0,1,10.35,1.737,41.955,41.955,0,0,1,5.833,2.989l.692.467,3.606-7.581-.519-.346a30.678,30.678,0,0,0-8.175-3.687A36.076,36.076,0,0,0,62.585,9.642a31.371,31.371,0,0,0-10.968,1.771,23.362,23.362,0,0,0-7.991,4.846,20.417,20.417,0,0,0-4.864,6.975,20.644,20.644,0,0,0-1.615,7.939c0,9.485,7.01,16.564,20.845,21.036,5.816,1.835,10.206,3.969,13.056,6.352,2.735,2.3,4.119,5.568,4.119,9.7a13.079,13.079,0,0,1-4.321,9.652c-2.873,2.775-7.552,4.177-13.893,4.177A30.553,30.553,0,0,1,46.713,80.41a40.02,40.02,0,0,1-8.147-3.842l-.715-.456-3.4,7.939.548.323a40.072,40.072,0,0,0,9.8,4.062,43.485,43.485,0,0,0,11.539,1.512,37.488,37.488,0,0,0,11.649-1.679,26.981,26.981,0,0,0,8.752-4.662,19.573,19.573,0,0,0,5.521-7.148,21.326,21.326,0,0,0,1.864-8.827c0-5.8-1.789-10.483-5.3-13.893C75.358,50.392,70.085,47.472,63.127,45.044Z" transform="translate(-34.447 25.402)" fill="#fff"/>
      <path id="Path_941" data-name="Path 941" d="M53.273,4.679a6.666,6.666,0,0,0-5.066,2.273,7.426,7.426,0,0,0-2.065,5.175,7.744,7.744,0,0,0,1.892,5.164,6.34,6.34,0,0,0,5.089,2.29,6.523,6.523,0,0,0,5.239-2.29,7.776,7.776,0,0,0,1.892-5.164,7.6,7.6,0,0,0-1.979-5.169A6.436,6.436,0,0,0,53.273,4.679Z" transform="translate(21.332 1.731)" fill="#fff"/>
      <rect id="Rectangle_408" data-name="Rectangle 408" width="9.111" height="76.547" transform="translate(69.974 36.925)" fill="#fff"/>
      <path id="Path_942" data-name="Path 942" d="M97.23,31.432l1.939-7.546H75.179V7.05l-9.11,2.787V23.885H52.459l-1.933,7.546H66.069V77.807a46.641,46.641,0,0,0,1.114,10.327,18.138,18.138,0,0,0,4.062,8.285c3.26,3.912,8.129,5.891,14.481,5.891a32.727,32.727,0,0,0,6.8-.64,34.364,34.364,0,0,0,5.037-1.442l.548-.208-1.177-7.391-.819.306a22.547,22.547,0,0,1-3.941.981A35.46,35.46,0,0,1,86.5,94.3c-4.35,0-7.241-1.414-8.833-4.321a23.106,23.106,0,0,1-2.492-11.233V31.432Z" transform="translate(42.241 13.039)" fill="#fff"/>
      <path id="Path_943" data-name="Path 943" d="M125.607,23.6a31.216,31.216,0,0,0-10.16-9.854c-4.379-2.723-10.195-4.1-17.291-4.1A38.924,38.924,0,0,0,83.011,12.6a35.329,35.329,0,0,0-12.127,8.389,39.372,39.372,0,0,0-8.06,13.224,49.441,49.441,0,0,0-2.931,17.47,41.192,41.192,0,0,0,2.781,15.283,35.58,35.58,0,0,0,7.9,12.133A36.21,36.21,0,0,0,82.954,87.08,43.734,43.734,0,0,0,99.1,89.947c1.869,0,3.7-.052,5.446-.156s3.369-.265,4.823-.479l.681-.092-.756-7.846-.738.1a71.661,71.661,0,0,1-8.677.462,36.958,36.958,0,0,1-12.283-2,26.885,26.885,0,0,1-9.825-6.018,27.925,27.925,0,0,1-6.554-9.993,37.629,37.629,0,0,1-2.377-13.408h62.241l.162-.5a6.88,6.88,0,0,0,.34-2.094V45.1a51.475,51.475,0,0,0-1.189-9.762A35.168,35.168,0,0,0,125.607,23.6Zm-3.45,19.374H69.436a42.08,42.08,0,0,1,2.325-8.008A30.738,30.738,0,0,1,76.89,26.4a26.6,26.6,0,0,1,8.3-6.473A26.092,26.092,0,0,1,97.221,17.35c5.475,0,9.895,1.015,13.16,3.017a23.054,23.054,0,0,1,7.587,7.275,24.249,24.249,0,0,1,3.421,8.66v.006A50.149,50.149,0,0,1,122.157,42.972Z" transform="translate(86.917 25.402)" fill="#fff"/>
      <path id="Path_944" data-name="Path 944" d="M143.054,50.2a34.986,34.986,0,0,0-11.579-8.475,36.327,36.327,0,0,0-15.237-3.116c-7.933,0-14.62,1.7-19.876,5.043A34.919,34.919,0,0,0,85.348,54.57v-51h-9.11v94.6c0,3.052-.052,6.1-.156,9.047-.1,3-.26,6.046-.473,9.052l-.052.773h8.51l.433-13.4a32.189,32.189,0,0,0,12.56,11.441,40.686,40.686,0,0,0,17.92,3.831,38.54,38.54,0,0,0,13.956-2.625,37.012,37.012,0,0,0,12.2-7.823,38.215,38.215,0,0,0,8.695-12.912A45.8,45.8,0,0,0,153.1,77.671a43,43,0,0,0-2.631-15.035A38.633,38.633,0,0,0,143.054,50.2Zm.935,27.78a41.361,41.361,0,0,1-2.152,13.691,30.851,30.851,0,0,1-6.041,10.477,26.314,26.314,0,0,1-9.439,6.7,32.254,32.254,0,0,1-12.629,2.365,29.36,29.36,0,0,1-9.848-1.6,32.293,32.293,0,0,1-8.112-4.206,26.828,26.828,0,0,1-6.1-6.1,21.43,21.43,0,0,1-4.321-12.883V73.442a16,16,0,0,1,.369-3.664c.248-1.044.531-2.054.842-3.006A29.059,29.059,0,0,1,91,57.836a27.283,27.283,0,0,1,6.629-6.4,29.657,29.657,0,0,1,8.089-3.825,31.471,31.471,0,0,1,8.954-1.292,28.942,28.942,0,0,1,12.289,2.51,27.716,27.716,0,0,1,9.231,6.866,30.214,30.214,0,0,1,5.8,10.085A37.146,37.146,0,0,1,143.989,77.983Z" transform="translate(161.626 -3.568)" fill="#fff"/>
      <path id="Path_945" data-name="Path 945" d="M159.535,76.807a44.594,44.594,0,0,1-1-9.162V9.968h-9.11V56.222a19.394,19.394,0,0,1-.525,4.6,21.5,21.5,0,0,1-1.292,3.866,27,27,0,0,1-9.45,10.974,25.54,25.54,0,0,1-14.92,4.564A22.5,22.5,0,0,1,113,78.111a18.31,18.31,0,0,1-6.773-5.873,24.876,24.876,0,0,1-3.8-9.127,57.628,57.628,0,0,1-1.16-11.9V9.968h-9.1v42.81c0,8.112,1.1,14.579,3.271,19.235a29.107,29.107,0,0,0,7.945,10.749,22.553,22.553,0,0,0,9.629,4.679,43.44,43.44,0,0,0,8.193.952,35.128,35.128,0,0,0,10.547-1.517,32.282,32.282,0,0,0,14.874-9.606,37.479,37.479,0,0,0,3.623-4.858c.1.86.248,1.939.444,3.237.213,1.425.415,2.706.635,3.906.4,1.627,1.154,4.177,2.36,8.025l.2.629,8.695-1.9-.335-.8A47.548,47.548,0,0,1,159.535,76.807Z" transform="translate(240.838 26.957)" fill="#fff"/>
      <path id="Path_946" data-name="Path 946" d="M175.571,50.2A35.065,35.065,0,0,0,164,41.727a36.362,36.362,0,0,0-15.249-3.116c-7.922,0-14.608,1.7-19.864,5.043A34.858,34.858,0,0,0,117.871,54.57v-51h-9.116v94.6c0,3.052-.046,6.1-.156,9.047-.092,2.885-.248,5.844-.473,9.052l-.052.773h8.516l.427-13.4a32.2,32.2,0,0,0,12.566,11.441,40.678,40.678,0,0,0,17.914,3.831,38.54,38.54,0,0,0,13.956-2.625,36.953,36.953,0,0,0,12.2-7.823,38.219,38.219,0,0,0,8.695-12.912,45.841,45.841,0,0,0,3.266-17.885,43.162,43.162,0,0,0-2.625-15.035A38.792,38.792,0,0,0,175.571,50.2Zm.94,27.78a41.335,41.335,0,0,1-2.158,13.691,30.855,30.855,0,0,1-6.035,10.477,26.363,26.363,0,0,1-9.439,6.7,32.335,32.335,0,0,1-12.629,2.365,29.394,29.394,0,0,1-9.854-1.6,32.391,32.391,0,0,1-8.112-4.206,26.8,26.8,0,0,1-6.093-6.1,21.429,21.429,0,0,1-4.321-12.883V73.442a16,16,0,0,1,.369-3.664c.248-1.044.531-2.054.842-3.006a28.931,28.931,0,0,1,4.437-8.937,27.26,27.26,0,0,1,6.623-6.4,29.646,29.646,0,0,1,8.1-3.825,31.314,31.314,0,0,1,8.948-1.292,28.915,28.915,0,0,1,12.283,2.51,27.68,27.68,0,0,1,9.237,6.866,30.311,30.311,0,0,1,5.8,10.085A37.3,37.3,0,0,1,176.512,77.983Z" transform="translate(316.715 -3.568)" fill="#fff"/>
      <path id="Path_947" data-name="Path 947" d="M201.266,33.574a37.322,37.322,0,0,0-7.979-12.526,36.683,36.683,0,0,0-12.606-8.377,43.775,43.775,0,0,0-16.622-3.029,42.948,42.948,0,0,0-15.283,2.787,38.291,38.291,0,0,0-12.912,8.135,40.238,40.238,0,0,0-8.92,12.906A42.132,42.132,0,0,0,123.6,50.576a41.413,41.413,0,0,0,2.948,15.687A36.841,36.841,0,0,0,147.281,87a41.877,41.877,0,0,0,15.843,2.948,45.532,45.532,0,0,0,14.228-2.383,40,40,0,0,0,13.224-7.408,38.18,38.18,0,0,0,9.733-12.751c2.487-5.141,3.75-11.383,3.75-18.549A42.05,42.05,0,0,0,201.266,33.574ZM163.9,17.35A29.653,29.653,0,0,1,177.8,20.4a30.305,30.305,0,0,1,15.226,18.035,36.828,36.828,0,0,1,1.765,10.893,35.123,35.123,0,0,1-2.683,14.112,32.177,32.177,0,0,1-7.033,10.327A29.155,29.155,0,0,1,175,80.1a33.011,33.011,0,0,1-23.349,0,28.536,28.536,0,0,1-9.693-6.26,31.777,31.777,0,0,1-6.808-10.1,33.987,33.987,0,0,1-2.6-13.639,38.577,38.577,0,0,1,1.99-12.364,31.75,31.75,0,0,1,5.9-10.477,27.565,27.565,0,0,1,9.762-7.246A32.935,32.935,0,0,1,163.9,17.35Z" transform="translate(390.752 25.402)" fill="#fff"/>
    </g>
    <g id="Group_988" data-name="Group 988" transform="translate(1.001 2.309)">
      <path id="Path_948" data-name="Path 948" d="M37.289,24.14l-1.344,1.437A108.247,108.247,0,0,1,25.207,35.662l-1.54,1.252,22.1,23.661a9.39,9.39,0,0,0,6.831,2.96,9.336,9.336,0,0,0,6.82-15.71Z" transform="translate(107.107 101.813)" fill="#fff"/>
      <path id="Path_949" data-name="Path 949" d="M37.218,52.659a72.346,72.346,0,0,0,10.806.7c11.689,0,18.878,5.169,22.836,9.5,4.968,5.452,6.514,11.158,6.514,12.624v21.2a9.338,9.338,0,0,0,18.676,0v-21.2c0-4.506,7.656-22.126,29.349-22.126a66.371,66.371,0,0,0,10.818-.7A67.956,67.956,0,0,0,154,46.619c7.714-4.183,12.774-12.006,17.718-24.013a9.357,9.357,0,0,0-5.077-12.191h-.006a9.345,9.345,0,0,0-12.191,5.077c-3.012,7.321-5.6,12.052-10.045,15.053a73.049,73.049,0,0,0-115.372-.006c-4.442-3-7.033-7.725-10.05-15.047A9.341,9.341,0,0,0,1.7,22.606c5,12.133,10.852,20.153,17.955,24.157C23.689,49.036,32.649,51.915,37.218,52.659ZM26.689,50.184m96.125-15.451C105.8,35.478,94.953,43.5,88.769,50.276c-.687.75-1.362,1.558-2.06,2.458-5.729-7.212-17.02-17.17-36.1-18a54.275,54.275,0,0,1,72.205,0Z" transform="translate(-1.001 -2.309)" fill="#fff"/>
      <path id="Path_950" data-name="Path 950" d="M30.7,24.856A11.152,11.152,0,1,0,19.544,36.015,11.168,11.168,0,0,0,30.7,24.856Z" transform="translate(34.253 52.039)" fill="#fff"/>
      <path id="Path_951" data-name="Path 951" d="M41.916,24.856A11.155,11.155,0,1,0,30.763,36.015,11.168,11.168,0,0,0,41.916,24.856Z" transform="translate(87.733 52.039)" fill="#fff"/>
      <path id="Path_952" data-name="Path 952" d="M149.523,34.175a73,73,0,0,0-3.035-20.8l-.629-2.106-1.967.981A55.425,55.425,0,0,1,130.12,16.8l-1.962.4.554,1.921A54.5,54.5,0,1,1,23.99,19.093l.542-1.875-1.9-.438A58.6,58.6,0,0,1,8.892,11.985L6.924,10.97l-.646,2.123A73.174,73.174,0,1,0,149.523,34.175Z" transform="translate(9.366 38.999)" fill="#fff"/>
    </g>
  </g>
</svg>
