<svg xmlns="http://www.w3.org/2000/svg" width="75.582" height="75.582" viewBox="0 0 75.582 75.582">
  <g id="web-maintenance" transform="translate(0.5 0.5)">
    <path id="XMLID_294_" d="M70.212,11.653h-3.5V4.37A4.375,4.375,0,0,0,62.346,0H12.236a4.375,4.375,0,0,0-4.37,4.37v7.283H4.37A4.375,4.375,0,0,0,0,16.023V57.976a4.375,4.375,0,0,0,4.37,4.37H30.008v3.5H27.236a4.375,4.375,0,0,0-4.37,4.37v2.914a1.457,1.457,0,0,0,1.457,1.457H50.259a1.457,1.457,0,0,0,1.457-1.457V70.211a4.375,4.375,0,0,0-4.37-4.37H44.574v-3.5H70.212a4.375,4.375,0,0,0,4.37-4.37V16.023A4.375,4.375,0,0,0,70.212,11.653Zm0,2.913a1.458,1.458,0,0,1,1.457,1.457v33.5H66.716V14.567ZM12.236,2.913h50.11A1.458,1.458,0,0,1,63.8,4.37v7.283H10.779V4.37A1.458,1.458,0,0,1,12.236,2.913ZM4.37,14.567h3.5V25.49a1.457,1.457,0,0,0,2.913,0V14.567H63.8v34.96H56.374v-4.8a1.457,1.457,0,0,0-1.457-1.457h-1.9a16.207,16.207,0,0,0-1.367-3.3L53,38.632a1.457,1.457,0,0,0,0-2.06l-4.422-4.422a1.457,1.457,0,0,0-2.06,0L45.172,33.49a16.2,16.2,0,0,0-3.3-1.367v-1.9a1.457,1.457,0,0,0-1.457-1.457H34.164a1.457,1.457,0,0,0-1.457,1.457v1.9a16.207,16.207,0,0,0-3.3,1.367l-1.341-1.341a1.457,1.457,0,0,0-2.06,0l-4.422,4.422a1.457,1.457,0,0,0,0,2.06l1.341,1.341a16.2,16.2,0,0,0-1.367,3.3H19.665a1.457,1.457,0,0,0-1.457,1.457v4.8H10.779V38.6a1.457,1.457,0,1,0-2.913,0V49.527H2.913v-33.5A1.458,1.458,0,0,1,4.37,14.567ZM25.79,38.715,24.676,37.6l2.362-2.362,1.113,1.113a1.457,1.457,0,0,0,1.823.192,13.343,13.343,0,0,1,4.493-1.862,1.457,1.457,0,0,0,1.153-1.425V31.684h3.341v1.574a1.457,1.457,0,0,0,1.153,1.425,13.342,13.342,0,0,1,4.493,1.862,1.457,1.457,0,0,0,1.823-.192l1.113-1.113L49.906,37.6l-1.113,1.113a1.457,1.457,0,0,0-.192,1.823,13.345,13.345,0,0,1,1.862,4.493,1.457,1.457,0,0,0,1.425,1.153H53.46v3.344H44.379a7.284,7.284,0,1,0-14.176,0H21.122V46.183H22.7A1.457,1.457,0,0,0,24.12,45.03a13.342,13.342,0,0,1,1.862-4.493,1.457,1.457,0,0,0-.192-1.823Zm7.13,9.139a4.371,4.371,0,1,1,8.4,1.673H33.257A4.346,4.346,0,0,1,32.92,47.854ZM48.8,70.211v1.457H25.78V70.211a1.458,1.458,0,0,1,1.457-1.457H47.346A1.458,1.458,0,0,1,48.8,70.211Zm-7.141-4.37h-8.74v-3.5h8.74Zm28.551-6.409H4.37a1.458,1.458,0,0,1-1.457-1.457V52.44H71.669v5.535A1.458,1.458,0,0,1,70.212,59.432Z" fill="#fff" stroke="#fff" stroke-width="1"/>
    <path id="XMLID_1617_" d="M277.457,42.913h15.732a1.457,1.457,0,0,0,0-2.913H277.457a1.457,1.457,0,0,0,0,2.913Z" transform="translate(-235.796 -34.173)" fill="#fff" stroke="#fff" stroke-width="1"/>
    <path id="XMLID_1618_" d="M153.457,42.913a1.457,1.457,0,1,0-1.03-.427A1.468,1.468,0,0,0,153.457,42.913Z" transform="translate(-129.858 -34.173)" fill="#fff" stroke="#fff" stroke-width="1"/>
    <path id="XMLID_1620_" d="M109.457,42.913a1.457,1.457,0,1,0-1.03-.427A1.468,1.468,0,0,0,109.457,42.913Z" transform="translate(-92.268 -34.173)" fill="#fff" stroke="#fff" stroke-width="1"/>
    <path id="XMLID_1623_" d="M197.457,42.913a1.457,1.457,0,1,0-1.03-.427A1.468,1.468,0,0,0,197.457,42.913Z" transform="translate(-167.449 -34.173)" fill="#fff" stroke="#fff" stroke-width="1"/>
    <path id="XMLID_1624_" d="M103.457,130.911h3.467a1.457,1.457,0,0,0,0-2.913h-3.467a1.457,1.457,0,0,0,0,2.913Z" transform="translate(-87.142 -109.353)" fill="#fff" stroke="#fff" stroke-width="1"/>
    <path id="XMLID_1626_" d="M171.255,130.911h13.363a1.457,1.457,0,0,0,0-2.913H171.255a1.457,1.457,0,1,0,0,2.913Z" transform="translate(-145.064 -109.353)" fill="#fff" stroke="#fff" stroke-width="1"/>
    <path id="XMLID_1627_" d="M103.457,178.909h8.449a1.457,1.457,0,1,0,0-2.913h-8.449a1.457,1.457,0,1,0,0,2.913Z" transform="translate(-87.142 -150.359)" fill="#fff" stroke="#fff" stroke-width="1"/>
    <path id="XMLID_1628_" d="M306.993,130.911h12.3a1.457,1.457,0,0,0,0-2.913h-12.3a1.457,1.457,0,0,0,0,2.913Z" transform="translate(-261.029 -109.353)" fill="#fff" stroke="#fff" stroke-width="1"/>
    <path id="XMLID_1633_" d="M332.987,176h-9.969a1.457,1.457,0,1,0,0,2.913h9.969a1.457,1.457,0,0,0,0-2.913Z" transform="translate(-274.72 -150.359)" fill="#fff" stroke="#fff" stroke-width="1"/>
    <path id="XMLID_1635_" d="M55.457,212.9a1.457,1.457,0,1,0-1.03-.427A1.468,1.468,0,0,0,55.457,212.9Z" transform="translate(-46.134 -179.401)" fill="#fff" stroke="#fff" stroke-width="1"/>
  </g>
</svg>
