<svg xmlns="http://www.w3.org/2000/svg" width="57.272" height="43.908" viewBox="0 0 57.272 43.908">
  <g id="email_1_" data-name="email (1)" transform="translate(0 -59.733)">
    <g id="Group_6" data-name="Group 6" transform="translate(0 59.733)">
      <g id="Group_5" data-name="Group 5" transform="translate(0 0)">
        <path id="Path_2" data-name="Path 2" d="M54.408,59.733H2.864A2.864,2.864,0,0,0,0,62.6v38.181a2.864,2.864,0,0,0,2.864,2.864H54.408a2.864,2.864,0,0,0,2.864-2.864V62.6A2.864,2.864,0,0,0,54.408,59.733Zm.954,41.045a.954.954,0,0,1-.954.954H2.864a.954.954,0,0,1-.954-.954V62.6a.954.954,0,0,1,.954-.954H54.408a.954.954,0,0,1,.954.954Z" transform="translate(0 -59.733)" fill="#969696"/>
        <path id="Path_3" data-name="Path 3" d="M82.9,93.869a.954.954,0,0,0-.7.22l-22.021,18.5a1.909,1.909,0,0,1-2.457,0L35.7,94.089a.955.955,0,0,0-1.228,1.462l22.021,18.5a3.813,3.813,0,0,0,4.912,0l22.021-18.5a.955.955,0,0,0-.531-1.682Z" transform="translate(-30.315 -90.047)" fill="#969696"/>
        <path id="Path_4" data-name="Path 4" d="M48.556,272.948a.955.955,0,0,0-.92.3L34.272,287.562a.955.955,0,1,0,1.4,1.3l13.363-14.318a.954.954,0,0,0-.475-1.6Z" transform="translate(-30.197 -249.078)" fill="#969696"/>
        <path id="Path_5" data-name="Path 5" d="M342.868,273.244a.955.955,0,1,0-1.4,1.3l13.363,14.318a.955.955,0,0,0,1.4-1.3Z" transform="translate(-303.035 -249.078)" fill="#969696"/>
      </g>
    </g>
  </g>
</svg>
