<svg xmlns="http://www.w3.org/2000/svg" width="66" height="66" viewBox="0 0 66 66">
  <path id="user" d="M66,33A33,33,0,1,0,10.711,57.31l-.031.028,1.07.9c.07.059.145.107.215.164.569.472,1.158.919,1.758,1.352.194.14.389.281.587.418q.961.662,1.97,1.258c.146.086.294.17.442.254.736.419,1.487.814,2.256,1.176l.17.077a32.7,32.7,0,0,0,7.981,2.526l.221.04c.869.15,1.747.27,2.636.35.108.01.216.016.325.025.886.073,1.781.12,2.688.12s1.786-.047,2.666-.118c.112-.01.223-.016.335-.025q1.323-.121,2.614-.344l.224-.041a32.7,32.7,0,0,0,7.868-2.466c.091-.042.184-.082.275-.125q1.111-.522,2.173-1.123.265-.149.527-.3c.646-.38,1.28-.778,1.9-1.2.222-.151.439-.311.659-.469.527-.379,1.044-.77,1.547-1.18.112-.09.232-.168.341-.26l1.1-.917-.032-.028A32.915,32.915,0,0,0,66,33ZM2.4,33A30.6,30.6,0,1,1,53.293,55.876a8.993,8.993,0,0,0-1.072-.644l-10.16-5.08a2.66,2.66,0,0,1-1.478-2.392V44.212c.235-.29.484-.619.74-.98a24.454,24.454,0,0,0,3.139-6.148,4.355,4.355,0,0,0,2.5-3.947V28.883A4.366,4.366,0,0,0,45.9,26.04v-5.6A9.679,9.679,0,0,0,43.64,13.4C41.429,10.878,37.849,9.6,33,9.6s-8.429,1.278-10.64,3.8a9.679,9.679,0,0,0-2.26,7.037v5.6a4.372,4.372,0,0,0-1.064,2.843v4.254a4.365,4.365,0,0,0,1.608,3.385,22.548,22.548,0,0,0,3.712,7.667V47.66a2.677,2.677,0,0,1-1.394,2.35l-9.488,5.176a8.673,8.673,0,0,0-.9.571A30.527,30.527,0,0,1,2.4,33ZM50.951,57.758q-.63.457-1.28.882c-.2.13-.4.259-.6.385-.566.35-1.142.684-1.73,1-.13.068-.26.133-.391.2a30.578,30.578,0,0,1-4.186,1.771l-.152.052q-1.129.374-2.285.662h-.007c-.778.192-1.565.352-2.357.482L37.9,63.2c-.745.121-1.5.209-2.25.275-.133.012-.266.02-.4.03-.745.056-1.494.092-2.246.092s-1.519-.037-2.274-.094c-.131-.01-.262-.018-.391-.03-.761-.067-1.518-.157-2.268-.28l-.1-.018A30.486,30.486,0,0,1,23.3,62.014l-.142-.048q-1.132-.385-2.234-.856l-.016-.007c-.694-.3-1.374-.63-2.046-.979-.088-.046-.176-.089-.263-.136-.613-.328-1.213-.682-1.8-1.051q-.263-.166-.522-.335c-.545-.356-1.082-.727-1.606-1.12-.054-.041-.106-.084-.16-.125l.115-.065,9.488-5.176a5.075,5.075,0,0,0,2.646-4.457V43.338L26.478,43a20.036,20.036,0,0,1-3.6-7.459l-.109-.475-.409-.265a1.989,1.989,0,0,1-.923-1.67V28.88a1.96,1.96,0,0,1,.668-1.468l.4-.358V20.371l-.011-.157a7.228,7.228,0,0,1,1.675-5.232C25.9,13,28.873,12,33,12c4.111,0,7.075,1,8.815,2.959a7.348,7.348,0,0,1,1.7,5.257L43.5,27.058l.4.358a1.962,1.962,0,0,1,.668,1.468v4.254a2,2,0,0,1-1.417,1.89l-.6.184-.192.594a22.2,22.2,0,0,1-3,6.038c-.314.444-.62.838-.883,1.139l-.3.34V47.76A5.045,5.045,0,0,0,40.988,52.3l10.16,5.08c.065.032.128.066.192.1C51.212,57.575,51.08,57.665,50.951,57.758Z" fill="#878787"/>
</svg>
