<svg xmlns="http://www.w3.org/2000/svg" width="65.466" height="66.495" viewBox="0 0 65.466 66.495">
  <path id="positive-vote" d="M65.168,28.487a4.763,4.763,0,0,0-2.95-2.03,4.79,4.79,0,0,0-3.195-6.905,4.8,4.8,0,0,0-.248-4.879,4.759,4.759,0,0,0-2.95-2.03,4.8,4.8,0,0,0-6.893-6.228L44.16,9.576A29.832,29.832,0,0,0,36.1,6.848a22.164,22.164,0,0,0-3.076-3.721L31.049,1.213A4.321,4.321,0,0,0,24.438,6.7q.078.118.153.237a30.079,30.079,0,1,0,34.284,39.7,1.034,1.034,0,1,0-1.945-.7A28.047,28.047,0,0,1,21.733,63l8.412-5.571h0L37.14,52.8h0a2.82,2.82,0,0,0,.794-3.908l-.092-.14,1.358-.9a4.606,4.606,0,0,1,3.282-.709,6.666,6.666,0,0,0,4.751-1.027L58.5,38.657a28.071,28.071,0,0,1-.381,2.9,1.034,1.034,0,0,0,.828,1.205,1.009,1.009,0,0,0,.19.018,1.034,1.034,0,0,0,1.015-.846,30.238,30.238,0,0,0,.494-4.7l3.174-2.1a4.8,4.8,0,0,0,1.35-6.646ZM42.152,10.9,38.993,13l-.622-1.676a22.127,22.127,0,0,0-.887-2.055A27.754,27.754,0,0,1,42.152,10.9ZM9.412,18.073A28.012,28.012,0,0,1,25.58,8.854a12.773,12.773,0,0,1,.644,7.736L23.7,27.481a2.814,2.814,0,0,0-3.609-.421l-7.14,4.728h0l-10.3,6.82c-.056-.726-.086-1.459-.086-2.19A28,28,0,0,1,9.412,18.073ZM36.32,50.6a.749.749,0,0,1-.323.478h0l-6.141,4.066-11.4-17A1.034,1.034,0,0,0,16.743,39.3l11.39,16.987-8.766,5.805A28.1,28.1,0,0,1,2.925,40.871l10.311-6.806,1.187,1.771a1.034,1.034,0,1,0,1.718-1.152l-1.178-1.758,6.275-4.142A.752.752,0,0,1,22.279,29L36.21,50.034a.745.745,0,0,1,.11.564Zm27.523-18.92a2.709,2.709,0,0,1-1.167,1.731l-3.629,2.4,0,0L46.091,44.392a4.6,4.6,0,0,1-3.282.709,6.67,6.67,0,0,0-4.751,1.027l-1.358.9L25.289,29.8l2.95-12.741a14.855,14.855,0,0,0-1.088-9.752,1.013,1.013,0,0,0-.044-.092,14.625,14.625,0,0,0-.946-1.654A2.254,2.254,0,0,1,29.609,2.7l1.975,1.915a20.2,20.2,0,0,1,4.848,7.43l1.076,2.9.006.015.008.02c.008.018.015.034.022.048a1.02,1.02,0,0,0,.071.128,1.033,1.033,0,0,0,1.433.291l11.027-7.3a2.728,2.728,0,0,1,3.012,4.549l-.957.634h0l-2.135,1.414-.008.006-.033.025a1.033,1.033,0,0,0,1.184,1.693l2.137-1.415a2.728,2.728,0,0,1,3.011,4.55L53.19,21.643a1.034,1.034,0,1,0,1.141,1.724l.479-.317,1.657-1.1A2.728,2.728,0,0,1,59.48,26.5l-1.545,1.023-.024.016-1.524,1.009a1.034,1.034,0,1,0,1.141,1.724l.479-.317h0l1.657-1.1a2.727,2.727,0,0,1,4.179,2.817Zm0,0" transform="translate(-0.501 -0.001)" fill="#878787"/>
</svg>
