<svg id="www_1_" data-name="www (1)" xmlns="http://www.w3.org/2000/svg" width="75.727" height="67.738" viewBox="0 0 75.727 67.738">
  <path id="Path_8" data-name="Path 8" d="M235.02,168.5a13.016,13.016,0,1,0,13.016,13.016A13.03,13.03,0,0,0,235.02,168.5Zm0,23.073a10.058,10.058,0,1,1,10.058-10.058A10.069,10.069,0,0,1,235.02,191.573Zm0,0" transform="translate(-189.169 -143.652)" fill="#878787"/>
  <path id="Path_9" data-name="Path 9" d="M301.483,211.5a1.479,1.479,0,0,0,0,2.958,3.7,3.7,0,0,1,3.7,3.7,1.479,1.479,0,1,0,2.958,0A6.662,6.662,0,0,0,301.483,211.5Zm0,0" transform="translate(-255.632 -180.296)" fill="#878787"/>
  <path id="Path_10" data-name="Path 10" d="M45.554,71.3a1.479,1.479,0,1,0-2.627,1.36l3.981,7.691a1.479,1.479,0,0,0,2.647-.04l2.41-5.018,2.618,5.058a1.48,1.48,0,0,0,1.314.8h.022a1.48,1.48,0,0,0,1.311-.839l3.694-7.691a1.479,1.479,0,1,0-2.666-1.28l-2.41,5.018L53.229,71.3a1.479,1.479,0,0,0-2.647.04l-2.41,5.018Zm0,0" transform="translate(-36.437 -60.144)" fill="#878787"/>
  <path id="Path_11" data-name="Path 11" d="M117.467,3.458A1.479,1.479,0,0,0,118.513.933a1.479,1.479,0,1,0-2.091,2.091A1.489,1.489,0,0,0,117.467,3.458Zm0,0" transform="translate(-98.833 -0.5)" fill="#878787"/>
  <path id="Path_12" data-name="Path 12" d="M75.727,25.94V6.416A5.923,5.923,0,0,0,69.811.5H24.846a1.479,1.479,0,0,0,0,2.958H69.811a2.962,2.962,0,0,1,2.958,2.958V25.94A2.962,2.962,0,0,1,69.811,28.9h-7.1c-.043,0-.084,0-.126.006a19.33,19.33,0,0,0-10.4-8.693l2.193-4.565L57,20.7a1.478,1.478,0,0,0,1.313.8h.023a1.48,1.48,0,0,0,1.311-.839l3.694-7.691a1.479,1.479,0,0,0-2.666-1.28l-2.41,5.018-2.618-5.058a1.479,1.479,0,0,0-2.647.04l-2.41,5.018L47.97,11.652a1.479,1.479,0,0,0-2.628,1.36l3.274,6.323a19.257,19.257,0,0,0-8.012.528l3.31-6.891a1.479,1.479,0,0,0-2.666-1.28l-2.41,5.018-2.618-5.058a1.479,1.479,0,0,0-2.647.04l-2.41,5.018-2.618-5.058a1.479,1.479,0,0,0-2.627,1.36L29.9,20.7a1.479,1.479,0,0,0,2.647-.04l2.41-5.018L37.573,20.7a1.444,1.444,0,0,0,.156.235A19.356,19.356,0,0,0,29.12,28.9H5.916A2.962,2.962,0,0,1,2.958,25.94V6.416A2.962,2.962,0,0,1,5.916,3.458h6.063a1.479,1.479,0,1,0,0-2.958H5.916A5.923,5.923,0,0,0,0,6.416V25.94a5.923,5.923,0,0,0,5.916,5.916H27.758A19.223,19.223,0,0,0,55.426,55.033L67.165,66.772a5.015,5.015,0,1,0,7.092-7.093l-4.612-4.612a1.479,1.479,0,1,0-2.091,2.091l4.612,4.613a2.057,2.057,0,1,1-2.909,2.91L57.907,53.33a19.21,19.21,0,0,0,6.036-21.474h5.867a5.923,5.923,0,0,0,5.916-5.916ZM45.851,54.633a16.27,16.27,0,1,1,16.27-16.27A16.288,16.288,0,0,1,45.851,54.633Zm0,0" transform="translate(0 -0.5)" fill="#878787"/>
  <path id="Path_13" data-name="Path 13" d="M430.524,343.215a1.478,1.478,0,1,0,1.046-.433A1.49,1.49,0,0,0,430.524,343.215Zm0,0" transform="translate(-366.478 -292.156)" fill="#878787"/>
</svg>
