<svg xmlns="http://www.w3.org/2000/svg" width="38.472" height="50.18" viewBox="0 0 38.472 50.18">
  <path id="user" d="M41.3,35.87l-7.99-3.994A2.2,2.2,0,0,1,32.09,29.9V27.07c.192-.234.393-.5.6-.8a19.141,19.141,0,0,0,2.471-4.85A3.318,3.318,0,0,0,37.108,18.4V15.054a3.335,3.335,0,0,0-.836-2.2V8.41a7.5,7.5,0,0,0-1.75-5.457C32.8.994,30.017,0,26.236,0s-6.569.994-8.286,2.952A7.5,7.5,0,0,0,16.2,8.41v4.448a3.335,3.335,0,0,0-.836,2.2V18.4A3.326,3.326,0,0,0,16.615,21a17.553,17.553,0,0,0,2.93,6.053V29.82a2.21,2.21,0,0,1-1.152,1.94l-7.461,4.07A7.542,7.542,0,0,0,7,42.454v2.708c0,3.969,12.583,5.018,19.236,5.018s19.236-1.049,19.236-5.018V42.617A7.5,7.5,0,0,0,41.3,35.87Zm2.5,9.293c0,1.135-6.2,3.345-17.563,3.345S8.673,46.3,8.673,45.162V42.454a5.868,5.868,0,0,1,3.06-5.155l7.461-4.07a3.884,3.884,0,0,0,2.024-3.41V26.458l-.195-.233a15.789,15.789,0,0,1-2.852-5.909l-.076-.331L17.81,19.8a1.669,1.669,0,0,1-.774-1.4V15.054a1.651,1.651,0,0,1,.56-1.234l.276-.248V8.363l-.008-.11a5.807,5.807,0,0,1,1.342-4.2c1.386-1.581,3.751-2.382,7.029-2.382s5.626.8,7.014,2.365a5.887,5.887,0,0,1,1.357,4.216L34.6,13.572l.276.249a1.648,1.648,0,0,1,.56,1.233V18.4a1.663,1.663,0,0,1-1.189,1.588l-.417.128-.134.414a17.508,17.508,0,0,1-2.37,4.778,11,11,0,0,1-.7.9l-.208.238V29.9a3.862,3.862,0,0,0,2.146,3.473l7.99,3.994A5.84,5.84,0,0,1,43.8,42.617Z" transform="translate(-7)" fill="#737373"/>
</svg>
