<svg xmlns="http://www.w3.org/2000/svg" width="77.557" height="86.362" viewBox="0 0 77.557 86.362">
  <path id="Shape" d="M.747,79.008c7.03,4.4,19.274,6.306,27.572,6.971,13.59,1.091,37.22.17,48.63-6.971a1.44,1.44,0,0,0-.12-2.51c-1.212-.6-4.926-2.638-6.759-3.685-9.577-5.58-7.688-.127-18.263-10.08V54.362c2.743-2.592,4.33-4.887,4.513-8.867a9.832,9.832,0,0,0,5.352-7.776c.343-1.728,1.152-7.056-1.506-8.6,1.62-1.866,3.161-5.034,3.161-10.4,0-3.982-1.054-6.866-3.135-8.571a7.159,7.159,0,0,0-4.254-1.57C55.12,5.4,51.682,2.8,46.4,1.483,41.256.2,27.913.02,27.347,0a1.44,1.44,0,0,0-1.223,2.231,2.8,2.8,0,0,1,.387,2.089c-.318.806-1.487,1.25-2.413,1.482-4.261,1.068-5.377-1.643-5.483-1.938a1.44,1.44,0,0,0-2.565-.344c-3.179,4.753-3,16.742,2.6,25.28-3.444.324-3.292,5.512-2.628,8.915a9.867,9.867,0,0,0,5.352,7.776c.181,3.948,1.735,6.236,4.513,8.869v8.381C15.243,72.754,17.265,67.195,7.636,72.808,5.807,73.852,2.069,75.9.868,76.5a1.44,1.44,0,0,0-.121,2.51Zm67.885-3.7c1.485.85,2.992,1.676,4.506,2.494a64.625,64.625,0,0,1-17.9,4.654,21.5,21.5,0,0,0,4.815-10.421c2.488.844,3.636.393,8.584,3.273ZM58.84,37.23a1.645,1.645,0,0,0-.024.189,7.259,7.259,0,0,1-2.544,4.733c-.206-4.6.564-5.194,1.067-10.165a2.341,2.341,0,0,1,1.46-.308c.426.564.533,3.071.035,5.548ZM17.573,7.253A7.581,7.581,0,0,0,24.8,8.6c3.768-.943,5.03-3.259,4.619-5.671,4,.107,12.623.432,16.28,1.351,4.586,1.146,7.55,3.424,7.55,5.8a1.449,1.449,0,0,0,1.711,1.414c4.193-.323,5.489,3.033,5.489,7.226,0,5.135-1.565,7.707-2.88,8.971,0-.367.01-.8,0-.924C56.616,16.545,53.19,14.4,50.484,14.4c-5.967,0-6.114,1.44-11.636,1.44-5.5,0-5.7-1.44-11.636-1.44-3.728,0-6.124,3.92-6.969,11.448-2.933-5.276-4.36-12.914-2.67-18.594Zm1.315,30.159a1.55,1.55,0,0,0-.024-.183c-.523-2.615-.37-5.282.071-5.58a2.916,2.916,0,0,1,1.426.3c.464,5.171,1.286,5.362,1.068,10.208a7.247,7.247,0,0,1-2.54-4.74Zm5.345,7.115c0-1.251.13-2.723.13-4.176,0-3.927-1.345-5.689-1.354-13.343.432-4.717,1.754-9.728,4.2-9.728,5.5,0,5.7,1.44,11.636,1.44,5.966,0,6.113-1.44,11.636-1.44,2.043,0,3.653,3.744,4.2,9.677,0,8.443-1.6,8.745-1.286,15.641.18,3.888.081,6.329-3.269,9.371-5,4.547-4.9,8.51-8.837,8.51-6.83,0-6.768.6-9.5-3.42a29.507,29.507,0,0,0-3.528-4.395c-2.585-2.582-4.042-3.925-4.032-8.137Zm1.656,22.111v2.481a1.44,1.44,0,1,0,2.88,0V57.751c2.122,3.015,3.475,5.607,7.632,5.607,7.937,0,8.143.635,12.528-5.607V69.118a1.44,1.44,0,1,0,2.88,0V66.637a32.774,32.774,0,0,0,5.531,4.2C56.81,74.121,55,81.167,49.118,83.112a130.039,130.039,0,0,1-20.524,0c-5.9-1.94-7.708-8.99-8.237-12.28a32.848,32.848,0,0,0,5.531-4.195ZM9.074,75.3c4.919-2.866,6.1-2.423,8.574-3.267a21.5,21.5,0,0,0,4.815,10.421A64.665,64.665,0,0,1,4.558,77.8C6.073,76.984,7.582,76.154,9.074,75.3Z" transform="translate(-0.07 0)" fill="#ff9947"/>
</svg>
