<svg id="write-letter" xmlns="http://www.w3.org/2000/svg" width="62.667" height="62.598" viewBox="0 0 62.667 62.598">
  <g id="Group_49" data-name="Group 49" transform="translate(0 0)">
    <g id="Group_48" data-name="Group 48">
      <path id="Path_17" data-name="Path 17" d="M42.775,33.663a1.043,1.043,0,0,0-1.043,1.043V59.745a1.043,1.043,0,0,1-1.043,1.043H3.13a1.043,1.043,0,0,1-1.043-1.043V3.407A1.043,1.043,0,0,1,3.13,2.364H40.689a1.043,1.043,0,0,1,1.043,1.043v6.26a1.043,1.043,0,1,0,2.086,0V3.407a3.13,3.13,0,0,0-3.13-3.13H3.13A3.13,3.13,0,0,0,0,3.407V59.745a3.13,3.13,0,0,0,3.13,3.13H40.689a3.13,3.13,0,0,0,3.13-3.13V34.706A1.043,1.043,0,0,0,42.775,33.663Z" transform="translate(0 -0.277)" fill="#878787"/>
      <path id="Path_18" data-name="Path 18" d="M105.24,18.029a5.217,5.217,0,0,0-7.361-.016h0L91.012,24.88,55.093,60.8c-.01.009-.014.023-.023.032a1.036,1.036,0,0,0-.2.294l-.008.018-4.418,10.31A1.043,1.043,0,0,0,51.4,72.91a1.032,1.032,0,0,0,.411-.085l10.309-4.418.018-.008a1.011,1.011,0,0,0,.294-.2c.009-.009.023-.013.032-.023L98.388,32.26l6.868-6.869A5.217,5.217,0,0,0,105.24,18.029ZM53.386,69.884l2.792-6.514L59.9,67.092Zm8.346-3.92-4.427-4.427L91.751,27.094l4.426,4.426Zm35.919-35.92-4.426-4.426,1.7-1.7,4.427,4.427Zm6.131-6.125h-.005l-2.951,2.951L96.4,22.439l2.952-2.946a3.13,3.13,0,1,1,4.427,4.427Z" transform="translate(-44.101 -14.485)" fill="#878787"/>
      <path id="Path_19" data-name="Path 19" d="M93.231,75.818H68.191a1.043,1.043,0,1,0,0,2.086H93.231a1.043,1.043,0,0,0,0-2.086Z" transform="translate(-58.802 -66.428)" fill="#878787"/>
      <path id="Path_20" data-name="Path 20" d="M94.274,127.222a1.043,1.043,0,0,0-1.043-1.043H68.191a1.043,1.043,0,1,0,0,2.086H93.231A1.043,1.043,0,0,0,94.274,127.222Z" transform="translate(-58.802 -110.529)" fill="#878787"/>
      <path id="Path_21" data-name="Path 21" d="M68.191,176.539a1.043,1.043,0,0,0,0,2.087H86.971a1.043,1.043,0,0,0,0-2.087Z" transform="translate(-58.802 -154.63)" fill="#878787"/>
    </g>
  </g>
</svg>
