<svg xmlns="http://www.w3.org/2000/svg" width="101.857" height="80.5" viewBox="0 0 101.857 80.5">
  <g id="Group_458" data-name="Group 458" transform="translate(-16144 -2563)">
    <path id="Path_621" data-name="Path 621" d="M301.571,46H288.429V39.833c-.228-.09-.455-.184-.683-.286l-4.362,4.362-9.292-9.292,4.362-4.362c-.1-.228-.2-.455-.286-.683H272V16.429h6.167c.09-.228.184-.455.286-.683l-4.362-4.362,9.292-9.292,4.362,4.362c.228-.1.455-.2.683-.286V0h13.143V6.167c.228.09.455.184.683.286l4.362-4.362,9.292,9.292-4.362,4.362c.1.228.2.455.286.683H318V29.571h-6.167c-.09.228-.184.455-.286.683l4.362,4.362-9.292,9.292-4.362-4.362c-.228.1-.455.2-.683.286Zm-9.857-3.286h6.571V37.47l1.148-.363a14.78,14.78,0,0,0,2.4-1l1.07-.559,3.716,3.718,4.646-4.646L307.545,30.9l.559-1.07a14.784,14.784,0,0,0,1-2.4l.365-1.15h5.244V19.714H309.47l-.363-1.148a14.781,14.781,0,0,0-1-2.4l-.559-1.069,3.718-3.716-4.646-4.646L302.9,10.454l-1.07-.559a14.781,14.781,0,0,0-2.4-1l-1.15-.363V3.286h-6.571V8.53l-1.148.363a14.78,14.78,0,0,0-2.4,1l-1.07.559-3.716-3.718-4.646,4.646,3.718,3.716-.559,1.07a14.784,14.784,0,0,0-1,2.4l-.365,1.15h-5.244v6.571h5.244l.363,1.148a14.781,14.781,0,0,0,1,2.4l.559,1.069-3.718,3.716,4.646,4.646,3.716-3.718,1.069.559a14.781,14.781,0,0,0,2.4,1l1.15.365Z" transform="translate(15927.857 2563)" fill="#fff"/>
    <path id="Path_623" data-name="Path 623" d="M36.143,163.143H23V155.6a22.78,22.78,0,0,1-4.352-1.807l-5.339,5.339-9.294-9.294,5.339-5.339a22.93,22.93,0,0,1-1.807-4.352H0V127H7.547a22.78,22.78,0,0,1,1.807-4.352l-5.339-5.339,9.294-9.294,5.339,5.339A22.93,22.93,0,0,1,23,111.547V104H36.143v7.547a22.78,22.78,0,0,1,4.352,1.807l5.339-5.339,9.294,9.294-5.339,5.339A22.93,22.93,0,0,1,51.6,127h7.547v13.143H51.6a22.779,22.779,0,0,1-1.807,4.352l5.339,5.339-9.294,9.294-5.339-5.339a22.929,22.929,0,0,1-4.352,1.807Zm-9.857-3.286h6.571v-6.821l1.265-.3a19.648,19.648,0,0,0,5.781-2.4l1.106-.683,4.827,4.827,4.648-4.648-4.827-4.827.683-1.106a19.629,19.629,0,0,0,2.4-5.781l.3-1.263h6.821v-6.571H49.036l-.3-1.265a19.648,19.648,0,0,0-2.4-5.781l-.683-1.106,4.827-4.827-4.648-4.648-4.827,4.827L39.9,116.8a19.629,19.629,0,0,0-5.781-2.4l-1.263-.3v-6.821H26.286v6.821l-1.265.3a19.647,19.647,0,0,0-5.781,2.4l-1.106.683-4.827-4.827L8.66,117.309l4.827,4.827-.683,1.106a19.629,19.629,0,0,0-2.4,5.781l-.3,1.263H3.286v6.571h6.821l.3,1.265a19.648,19.648,0,0,0,2.4,5.781l.683,1.106-4.827,4.827,4.648,4.648,4.827-4.827,1.106.683a19.629,19.629,0,0,0,5.781,2.4l1.263.3Z" transform="translate(16144 2480.357)" fill="#fff"/>
    <g id="Group_456" data-name="Group 456" transform="translate(16164.022 2605.024)">
      <line id="Line_37" data-name="Line 37" y1="17.838" x2="19.202" transform="translate(0 0)" fill="none" stroke="#fff" stroke-width="3"/>
      <line id="Line_38" data-name="Line 38" y1="0.999" x2="15.506" transform="translate(3.696 0)" fill="none" stroke="#fff" stroke-width="3"/>
      <line id="Line_39" data-name="Line 39" y1="13.731" x2="0.925" transform="translate(18.277 0)" fill="none" stroke="#fff" stroke-width="3"/>
    </g>
    <g id="Group_457" data-name="Group 457" transform="translate(16230.6 2593.29) rotate(180)">
      <line id="Line_37-2" data-name="Line 37" y1="14.537" x2="15.649" transform="translate(0 0)" fill="none" stroke="#fff" stroke-width="3"/>
      <line id="Line_38-2" data-name="Line 38" y1="0.814" x2="12.637" transform="translate(3.012 0)" fill="none" stroke="#fff" stroke-width="3"/>
      <line id="Line_39-2" data-name="Line 39" y1="11.19" x2="0.754" transform="translate(14.895 0)" fill="none" stroke="#fff" stroke-width="3"/>
    </g>
  </g>
</svg>
