<svg id="tag" xmlns="http://www.w3.org/2000/svg" width="71" height="71" viewBox="0 0 71 71">
  <g id="Group_19" data-name="Group 19" transform="translate(29.247 51.021)">
    <g id="Group_18" data-name="Group 18">
      <rect id="Rectangle_19" data-name="Rectangle 19" width="2.366" height="2.213" transform="translate(0 1.673) rotate(-45)" fill="#878787"/>
    </g>
  </g>
  <g id="Group_21" data-name="Group 21" transform="translate(32.363 54.145)">
    <g id="Group_20" data-name="Group 20">
      <rect id="Rectangle_20" data-name="Rectangle 20" width="2.366" height="2.213" transform="translate(0 1.673) rotate(-45)" fill="#878787"/>
    </g>
  </g>
  <g id="Group_23" data-name="Group 23" transform="translate(26.119 47.898)">
    <g id="Group_22" data-name="Group 22">
      <rect id="Rectangle_21" data-name="Rectangle 21" width="2.366" height="2.213" transform="translate(0 1.673) rotate(-45)" fill="#878787"/>
    </g>
  </g>
  <g id="Group_25" data-name="Group 25" transform="translate(16.747 38.526)">
    <g id="Group_24" data-name="Group 24">
      <rect id="Rectangle_22" data-name="Rectangle 22" width="2.366" height="2.213" transform="translate(0 1.673) rotate(-45)" fill="#878787"/>
    </g>
  </g>
  <g id="Group_27" data-name="Group 27" transform="translate(13.619 35.403)">
    <g id="Group_26" data-name="Group 26">
      <rect id="Rectangle_23" data-name="Rectangle 23" width="2.366" height="2.213" transform="translate(0 1.673) rotate(-45)" fill="#878787"/>
    </g>
  </g>
  <g id="Group_29" data-name="Group 29" transform="translate(19.875 41.65)">
    <g id="Group_28" data-name="Group 28">
      <rect id="Rectangle_24" data-name="Rectangle 24" width="2.366" height="2.213" transform="translate(0 1.673) rotate(-45)" fill="#878787"/>
    </g>
  </g>
  <g id="Group_31" data-name="Group 31" transform="translate(22.991 44.774)">
    <g id="Group_30" data-name="Group 30">
      <rect id="Rectangle_25" data-name="Rectangle 25" width="2.366" height="2.213" transform="translate(0 1.673) rotate(-45)" fill="#878787"/>
    </g>
  </g>
  <g id="Group_33" data-name="Group 33" transform="translate(27.952 21.291)">
    <g id="Group_32" data-name="Group 32">
      <rect id="Rectangle_26" data-name="Rectangle 26" width="2.366" height="28.398" transform="translate(0 1.673) rotate(-45)" fill="#878787"/>
    </g>
  </g>
  <g id="Group_35" data-name="Group 35" transform="translate(24.615 24.642)">
    <g id="Group_34" data-name="Group 34">
      <rect id="Rectangle_27" data-name="Rectangle 27" width="2.366" height="28.398" transform="translate(0 1.673) rotate(-45)" fill="#878787"/>
    </g>
  </g>
  <g id="Group_37" data-name="Group 37" transform="translate(21.266 27.981)">
    <g id="Group_36" data-name="Group 36">
      <rect id="Rectangle_28" data-name="Rectangle 28" width="2.366" height="28.398" transform="translate(0 1.673) rotate(-45)" fill="#878787"/>
    </g>
  </g>
  <g id="Group_39" data-name="Group 39" transform="translate(0 0)">
    <g id="Group_38" data-name="Group 38">
      <path id="Path_7" data-name="Path 7" d="M70.652.348a1.188,1.188,0,0,0-1.68,0l-6.389,6.4L36.255,8.394a1.183,1.183,0,0,0-.769.343L.344,43.88a1.183,1.183,0,0,0,0,1.668L25.452,70.656a1.183,1.183,0,0,0,1.668,0L62.262,35.5a1.183,1.183,0,0,0,.343-.769L64.25,8.418l6.4-6.389A1.188,1.188,0,0,0,70.652.348ZM60.275,34.153,26.28,68.148,2.852,44.72,36.846,10.725l23.2-1.444L54,15.316a7,7,0,1,0,1.609,1.716l6.082-6.082ZM48.849,22.136l.007.007a1.183,1.183,0,0,0,1.673.007l.007-.007,3.36-3.36a4.721,4.721,0,1,1-4.2-2.591,4.65,4.65,0,0,1,2.639.8l-3.479,3.467A1.183,1.183,0,0,0,48.849,22.136Z" transform="translate(0 0)" fill="#878787"/>
    </g>
  </g>
</svg>
