<svg xmlns="http://www.w3.org/2000/svg" width="65.089" height="65.654" viewBox="0 0 65.089 65.654">
  <g id="user_1_" data-name="user (1)" transform="translate(-0.332)">
    <path id="Path_618" data-name="Path 618" d="M114.213,14.273A14.272,14.272,0,1,1,99.94,0,14.272,14.272,0,0,1,114.213,14.273Zm0,0" transform="translate(-73.917)" fill="#fff"/>
    <path id="Path_619" data-name="Path 619" d="M33.256,281.119a7.156,7.156,0,0,1,.58-7.993,7.155,7.155,0,0,1-.58-7.993l2.31-4a7.158,7.158,0,0,1,6.183-3.568,7.253,7.253,0,0,1,1.03.074,7.5,7.5,0,0,1,.331-.677A13.465,13.465,0,0,0,38.155,256H13.892A13.575,13.575,0,0,0,.332,269.558v9.991a2.142,2.142,0,0,0,2.141,2.141H33.584Zm0,0" transform="translate(0 -221.746)" fill="#fff"/>
    <path id="Path_620" data-name="Path 620" d="M306.185,292.943a10.389,10.389,0,0,0,.134-1.339,10.922,10.922,0,0,0-.134-1.339l2.572-1.947a1.428,1.428,0,0,0,.374-1.852l-2.309-4a1.428,1.428,0,0,0-1.79-.6l-2.96,1.248a10.625,10.625,0,0,0-2.338-1.39l-.394-3.143a1.429,1.429,0,0,0-1.415-1.25h-4.616a1.427,1.427,0,0,0-1.416,1.25l-.394,3.143a10.668,10.668,0,0,0-2.338,1.39l-2.96-1.248a1.425,1.425,0,0,0-1.79.6l-2.31,4a1.429,1.429,0,0,0,.374,1.852l2.572,1.947a10.385,10.385,0,0,0-.134,1.339,10.927,10.927,0,0,0,.134,1.339l-2.572,1.947a1.428,1.428,0,0,0-.374,1.852l2.31,4a1.428,1.428,0,0,0,1.79.6l2.96-1.25a10.627,10.627,0,0,0,2.338,1.39l.394,3.143a1.424,1.424,0,0,0,1.413,1.25h4.616a1.427,1.427,0,0,0,1.416-1.25l.394-3.143a10.654,10.654,0,0,0,2.337-1.39l2.96,1.248a1.425,1.425,0,0,0,1.79-.6l2.309-4a1.429,1.429,0,0,0-.374-1.852Zm-10.571,4.371a5.709,5.709,0,1,1,5.709-5.709A5.708,5.708,0,0,1,295.615,297.314Zm0,0" transform="translate(-243.901 -240.224)" fill="#fff"/>
  </g>
</svg>
