<svg id="Group_535" data-name="Group 535" xmlns="http://www.w3.org/2000/svg" width="83.859" height="77.719" viewBox="0 0 83.859 77.719">
  <path id="Path_683" data-name="Path 683" d="M81.457,228.506a2.393,2.393,0,0,0-2.4,2.4v21.855A10.782,10.782,0,0,1,68.287,263.53H15.572A10.782,10.782,0,0,1,4.805,252.763V230.553a2.4,2.4,0,0,0-4.805,0v22.211a15.589,15.589,0,0,0,15.572,15.572H68.287a15.589,15.589,0,0,0,15.572-15.572V230.909A2.4,2.4,0,0,0,81.457,228.506Z" transform="translate(0 -190.616)" fill="#303030"/>
  <path id="Path_684" data-name="Path 684" d="M152.22,75.891a2.418,2.418,0,0,0,1.691.712,2.344,2.344,0,0,0,1.691-.712l15.27-15.27a2.4,2.4,0,0,0-3.4-3.4L156.313,68.4V19.653a2.4,2.4,0,1,0-4.805,0V68.4L140.332,57.222a2.4,2.4,0,0,0-3.4,3.4Z" transform="translate(-111.981 -17.25)" fill="#303030"/>
</svg>
