<svg xmlns="http://www.w3.org/2000/svg" width="704.632" height="247.509" viewBox="0 0 704.632 247.509">
  <g id="Group_997" data-name="Group 997" transform="translate(-152.368 -332.943)">
    <g id="Group_994" data-name="Group 994" transform="translate(385.553 377.843)">
      <g id="Group_984" data-name="Group 984" transform="translate(34.447 3.568)">
        <path id="Path_928" data-name="Path 928" d="M55.518,35.651c-2.064-.691-3.887-1.378-5.417-2.052a19.359,19.359,0,0,1-3.912-2.234A8.081,8.081,0,0,1,43.81,28.56a8.388,8.388,0,0,1-.805-3.785,9.059,9.059,0,0,1,2.772-6.583c1.848-1.84,4.641-2.772,8.308-2.772a19.143,19.143,0,0,1,7.6,1.276,30.821,30.821,0,0,1,4.285,2.2l.509.343,2.649-5.57-.381-.254A22.539,22.539,0,0,0,62.745,10.7a26.5,26.5,0,0,0-7.626-1.06,23.048,23.048,0,0,0-8.058,1.3A17.164,17.164,0,0,0,41.191,14.5a15,15,0,0,0-3.573,5.125,15.167,15.167,0,0,0-1.187,5.833c0,6.969,5.15,12.17,15.315,15.455,4.273,1.348,7.5,2.916,9.592,4.667a8.844,8.844,0,0,1,3.026,7.125A9.609,9.609,0,0,1,61.189,59.8c-2.111,2.039-5.549,3.069-10.207,3.069a22.447,22.447,0,0,1-7.524-1.233,29.4,29.4,0,0,1-5.985-2.823l-.526-.335-2.5,5.833.4.237a29.441,29.441,0,0,0,7.2,2.984,31.948,31.948,0,0,0,8.478,1.111,27.542,27.542,0,0,0,8.558-1.233,19.822,19.822,0,0,0,6.43-3.425,14.381,14.381,0,0,0,4.057-5.252,15.668,15.668,0,0,0,1.369-6.485c0-4.264-1.314-7.7-3.9-10.207C64.5,39.58,60.63,37.436,55.518,35.651Z" transform="translate(-34.447 16.104)" fill="#fff"/>
        <path id="Path_929" data-name="Path 929" d="M51.381,4.679a4.9,4.9,0,0,0-3.722,1.67,5.456,5.456,0,0,0-1.517,3.8,5.689,5.689,0,0,0,1.39,3.794,4.658,4.658,0,0,0,3.739,1.683,4.793,4.793,0,0,0,3.849-1.683,5.713,5.713,0,0,0,1.39-3.794,5.584,5.584,0,0,0-1.454-3.8A4.729,4.729,0,0,0,51.381,4.679Z" transform="translate(3.43 0.03)" fill="#fff"/>
        <rect id="Rectangle_407" data-name="Rectangle 407" width="6.693" height="56.238" transform="translate(51.409 27.128)" fill="#fff"/>
        <path id="Path_930" data-name="Path 930" d="M84.839,24.963l1.424-5.544H68.638V7.05L61.945,9.1V19.419h-10l-1.42,5.544H61.945V59.034a34.266,34.266,0,0,0,.818,7.587,13.326,13.326,0,0,0,2.984,6.087c2.395,2.874,5.972,4.328,10.639,4.328a24.044,24.044,0,0,0,5-.471,25.24,25.24,0,0,0,3.7-1.06l.4-.153-.865-5.43-.6.225a16.564,16.564,0,0,1-2.9.721,26.051,26.051,0,0,1-4.167.28c-3.2,0-5.32-1.038-6.49-3.175a16.975,16.975,0,0,1-1.831-8.253V24.963Z" transform="translate(17.629 7.709)" fill="#fff"/>
        <path id="Path_931" data-name="Path 931" d="M108.173,19.9a22.934,22.934,0,0,0-7.464-7.24c-3.217-2-7.49-3.014-12.7-3.014a28.6,28.6,0,0,0-11.127,2.17,25.956,25.956,0,0,0-8.91,6.163,28.926,28.926,0,0,0-5.922,9.715,36.324,36.324,0,0,0-2.153,12.835,30.263,30.263,0,0,0,2.043,11.229,26.14,26.14,0,0,0,5.807,8.914,26.6,26.6,0,0,0,9.092,5.866A32.131,32.131,0,0,0,88.7,68.641c1.373,0,2.717-.038,4-.114s2.475-.195,3.544-.352l.5-.068-.555-5.765-.543.072a52.65,52.65,0,0,1-6.375.339,27.153,27.153,0,0,1-9.024-1.467,19.753,19.753,0,0,1-7.219-4.421,20.516,20.516,0,0,1-4.815-7.342,27.646,27.646,0,0,1-1.746-9.851H112.2l.119-.369a5.056,5.056,0,0,0,.25-1.539V35.693a37.818,37.818,0,0,0-.873-7.172A25.837,25.837,0,0,0,108.173,19.9Zm-2.535,14.234H66.9a30.916,30.916,0,0,1,1.708-5.883,22.584,22.584,0,0,1,3.768-6.29,19.543,19.543,0,0,1,6.1-4.756A19.17,19.17,0,0,1,87.318,15.3c4.023,0,7.269.746,9.669,2.217a16.938,16.938,0,0,1,5.574,5.345,17.815,17.815,0,0,1,2.514,6.362v0A36.849,36.849,0,0,1,105.638,34.129Z" transform="translate(47.967 16.104)" fill="#fff"/>
        <path id="Path_932" data-name="Path 932" d="M125.146,37.83a25.7,25.7,0,0,0-8.507-6.227,26.689,26.689,0,0,0-11.195-2.289c-5.828,0-10.741,1.246-14.6,3.7a25.654,25.654,0,0,0-8.092,8.02V3.568H76.057v69.5c0,2.242-.038,4.48-.114,6.646-.076,2.2-.191,4.442-.348,6.651l-.038.568h6.252l.318-9.842A23.649,23.649,0,0,0,91.355,85.5a29.892,29.892,0,0,0,13.166,2.815,28.315,28.315,0,0,0,10.254-1.929,27.192,27.192,0,0,0,8.965-5.748,28.076,28.076,0,0,0,6.388-9.486,33.645,33.645,0,0,0,2.4-13.14,31.588,31.588,0,0,0-1.933-11.046A28.383,28.383,0,0,0,125.146,37.83Zm.687,20.41A30.388,30.388,0,0,1,124.252,68.3a22.666,22.666,0,0,1-4.438,7.7,19.332,19.332,0,0,1-6.935,4.921,23.7,23.7,0,0,1-9.279,1.738,21.571,21.571,0,0,1-7.236-1.174,23.725,23.725,0,0,1-5.96-3.09,19.711,19.711,0,0,1-4.48-4.48,15.745,15.745,0,0,1-3.175-9.465V54.9a11.758,11.758,0,0,1,.271-2.692c.182-.767.39-1.509.619-2.208a21.35,21.35,0,0,1,3.26-6.566,20.044,20.044,0,0,1,4.87-4.7,21.788,21.788,0,0,1,5.943-2.81,23.122,23.122,0,0,1,6.579-.949,21.263,21.263,0,0,1,9.029,1.844,20.363,20.363,0,0,1,6.782,5.044,22.2,22.2,0,0,1,4.264,7.409A27.291,27.291,0,0,1,125.833,58.24Z" transform="translate(98.699 -3.568)" fill="#fff"/>
        <path id="Path_933" data-name="Path 933" d="M141.661,59.074a32.761,32.761,0,0,1-.733-6.731V9.968h-6.693V43.95a14.249,14.249,0,0,1-.386,3.378,15.8,15.8,0,0,1-.949,2.84,19.834,19.834,0,0,1-6.943,8.062A18.764,18.764,0,0,1,115,61.583a16.532,16.532,0,0,1-7.524-1.551,13.452,13.452,0,0,1-4.976-4.315A18.275,18.275,0,0,1,99.7,49.011a42.337,42.337,0,0,1-.852-8.74V9.968H92.165V41.42c0,5.96.81,10.711,2.4,14.132a21.384,21.384,0,0,0,5.837,7.9,16.569,16.569,0,0,0,7.075,3.438,31.915,31.915,0,0,0,6.019.7,25.808,25.808,0,0,0,7.748-1.115,23.717,23.717,0,0,0,10.928-7.058,27.532,27.532,0,0,0,2.662-3.569c.076.632.182,1.424.326,2.378.157,1.047.305,1.988.466,2.87.3,1.2.848,3.069,1.734,5.9l.144.462,6.388-1.395-.246-.585A34.933,34.933,0,0,1,141.661,59.074Z" transform="translate(152.488 17.16)" fill="#fff"/>
        <path id="Path_934" data-name="Path 934" d="M157.663,37.83a25.762,25.762,0,0,0-8.5-6.227,26.715,26.715,0,0,0-11.2-2.289c-5.82,0-10.733,1.246-14.594,3.7a25.61,25.61,0,0,0-8.092,8.02V3.568h-6.7v69.5c0,2.242-.034,4.48-.114,6.646-.068,2.119-.182,4.294-.348,6.651l-.038.568h6.256l.314-9.842a23.659,23.659,0,0,0,9.232,8.405,29.886,29.886,0,0,0,13.161,2.815,28.315,28.315,0,0,0,10.254-1.929,27.149,27.149,0,0,0,8.965-5.748,28.079,28.079,0,0,0,6.388-9.486,33.679,33.679,0,0,0,2.4-13.14,31.711,31.711,0,0,0-1.929-11.046A28.5,28.5,0,0,0,157.663,37.83Zm.691,20.41A30.367,30.367,0,0,1,156.769,68.3a22.669,22.669,0,0,1-4.434,7.7,19.369,19.369,0,0,1-6.935,4.921,23.756,23.756,0,0,1-9.279,1.738,21.6,21.6,0,0,1-7.24-1.174,23.8,23.8,0,0,1-5.96-3.09,19.689,19.689,0,0,1-4.476-4.48,15.744,15.744,0,0,1-3.175-9.465V54.9a11.757,11.757,0,0,1,.271-2.692c.182-.767.39-1.509.619-2.208a21.255,21.255,0,0,1,3.26-6.566,20.028,20.028,0,0,1,4.866-4.7,21.781,21.781,0,0,1,5.951-2.81,23.006,23.006,0,0,1,6.574-.949,21.244,21.244,0,0,1,9.024,1.844,20.337,20.337,0,0,1,6.786,5.044,22.269,22.269,0,0,1,4.264,7.409A27.4,27.4,0,0,1,158.354,58.24Z" transform="translate(204.014 -3.568)" fill="#fff"/>
        <path id="Path_935" data-name="Path 935" d="M180.659,27.224a27.421,27.421,0,0,0-5.862-9.2,26.95,26.95,0,0,0-9.262-6.155,32.161,32.161,0,0,0-12.212-2.225,31.553,31.553,0,0,0-11.228,2.047,28.132,28.132,0,0,0-9.486,5.977,29.562,29.562,0,0,0-6.553,9.482A30.954,30.954,0,0,0,123.6,39.716a30.427,30.427,0,0,0,2.166,11.525A27.066,27.066,0,0,0,141,66.475a30.766,30.766,0,0,0,11.64,2.166,33.452,33.452,0,0,0,10.453-1.751,29.391,29.391,0,0,0,9.715-5.443,28.049,28.049,0,0,0,7.151-9.368,31.182,31.182,0,0,0,2.755-13.628A30.893,30.893,0,0,0,180.659,27.224ZM153.209,15.3a21.785,21.785,0,0,1,10.211,2.238,22.265,22.265,0,0,1,11.186,13.25,27.057,27.057,0,0,1,1.3,8,25.8,25.8,0,0,1-1.971,10.368,23.639,23.639,0,0,1-5.167,7.587,21.419,21.419,0,0,1-7.405,4.658,24.253,24.253,0,0,1-17.154,0,20.966,20.966,0,0,1-7.121-4.6,23.347,23.347,0,0,1-5-7.418,24.971,24.971,0,0,1-1.907-10.02,28.342,28.342,0,0,1,1.462-9.084,23.326,23.326,0,0,1,4.332-7.7,20.253,20.253,0,0,1,7.172-5.324A24.2,24.2,0,0,1,153.209,15.3Z" transform="translate(254.289 16.104)" fill="#fff"/>
      </g>
    </g>
    <g id="Group_993" data-name="Group 993" transform="translate(151.368 330.634)">
      <path id="Path_923" data-name="Path 923" d="M44.057,24.14l-2.012,2.15a162.04,162.04,0,0,1-16.072,15.1l-2.306,1.874L56.744,78.679a14.056,14.056,0,0,0,10.225,4.43A13.975,13.975,0,0,0,77.178,59.592Z" transform="translate(173.089 166.709)" fill="#fff"/>
      <path id="Path_924" data-name="Path 924" d="M55.215,77.678a108.3,108.3,0,0,0,16.176,1.045c17.5,0,28.258,7.738,34.183,14.224,7.436,8.161,9.75,16.7,9.75,18.9v31.739a13.978,13.978,0,0,0,27.956,0V111.844c0-6.745,11.46-33.12,43.933-33.12a99.349,99.349,0,0,0,16.193-1.054,101.723,101.723,0,0,0,26.617-9.034c11.547-6.261,19.121-17.972,26.522-35.944a14.007,14.007,0,0,0-7.6-18.249h-.009a13.988,13.988,0,0,0-18.249,7.6C226.18,33,222.3,40.084,215.652,44.575a109.348,109.348,0,0,0-172.7-.009C36.3,40.076,32.424,33,27.907,22.043A13.982,13.982,0,0,0,2.05,32.692c7.488,18.162,16.245,30.167,26.876,36.16C34.963,72.255,48.375,76.564,55.215,77.678Zm-15.761-3.7,143.89-23.128c-25.469,1.114-41.7,13.119-50.963,23.266-1.028,1.123-2.038,2.332-3.083,3.679C120.722,67,103.82,52.089,75.26,50.845a81.244,81.244,0,0,1,108.084,0Z" transform="translate(0 0)" fill="#fff"/>
      <path id="Path_925" data-name="Path 925" d="M41.78,30.4A16.694,16.694,0,1,0,25.086,47.1,16.717,16.717,0,0,0,41.78,30.4Z" transform="translate(56.444 87.016)" fill="#fff"/>
      <path id="Path_926" data-name="Path 926" d="M53,30.4A16.7,16.7,0,1,0,36.308,47.1,16.717,16.717,0,0,0,53,30.4Z" transform="translate(142.07 87.016)" fill="#fff"/>
      <path id="Path_927" data-name="Path 927" d="M222.244,45.705A109.27,109.27,0,0,0,217.7,14.563l-.941-3.152-2.945,1.468A82.966,82.966,0,0,1,193.2,19.693l-2.936.6.829,2.876A81.587,81.587,0,1,1,34.334,23.13l.812-2.807L32.3,19.667A87.716,87.716,0,0,1,11.733,12.49L8.788,10.97,7.82,14.148A109.534,109.534,0,1,0,222.244,45.705Z" transform="translate(16.597 66.138)" fill="#fff"/>
    </g>
  </g>
</svg>
