<svg xmlns="http://www.w3.org/2000/svg" width="53.988" height="53.993" viewBox="0 0 53.988 53.993">
  <g id="Group_890" data-name="Group 890" transform="translate(-19471.994 -5394.999)">
    <g id="broken-link" transform="translate(19471.994 5394.999)">
      <path id="Path_624" data-name="Path 624" d="M50.622,3.733a12.786,12.786,0,0,0-18.057,0l-9.029,9.029a1.964,1.964,0,1,0,2.778,2.778l9.029-9.029a8.84,8.84,0,0,1,12.5,12.5L36.038,30.821a8.853,8.853,0,0,1-12.5,0A1.964,1.964,0,0,0,20.758,33.6a12.784,12.784,0,0,0,18.057,0L50.622,21.792a12.8,12.8,0,0,0,0-18.058Z" transform="translate(-0.362 -0.001)" fill="#ab86ff"/>
      <path id="Path_625" data-name="Path 625" d="M26.65,40.163,19.01,47.8a8.84,8.84,0,0,1-12.5-12.5L17.621,24.188a8.872,8.872,0,0,1,12.5,0A1.964,1.964,0,0,0,32.9,21.41a12.785,12.785,0,0,0-18.057,0L3.73,32.524A12.768,12.768,0,0,0,21.787,50.581l7.64-7.64a1.964,1.964,0,1,0-2.777-2.778Z" transform="translate(-0.003 -0.315)" fill="#ab86ff"/>
      <path id="Path_626" data-name="Path 626" d="M33.967,44.007A1.965,1.965,0,0,0,32,45.971v5.893a1.964,1.964,0,0,0,3.929,0V45.971A1.964,1.964,0,0,0,33.967,44.007Z" transform="translate(-0.572 -0.783)" fill="#ab86ff"/>
      <path id="Path_627" data-name="Path 627" d="M41.114,42.583a1.964,1.964,0,1,0-2.778,2.778L42.5,49.527a1.964,1.964,0,0,0,2.778-2.778Z" transform="translate(-0.674 -0.747)" fill="#ab86ff"/>
      <path id="Path_628" data-name="Path 628" d="M45.826,36.007H39.932a1.964,1.964,0,1,0,0,3.929h5.893a1.964,1.964,0,1,0,0-3.929Z" transform="translate(-0.678 -0.641)" fill="#ab86ff"/>
      <path id="Path_629" data-name="Path 629" d="M17.967,12.829a1.965,1.965,0,0,0,1.964-1.964V4.971a1.964,1.964,0,1,0-3.929,0v5.893A1.965,1.965,0,0,0,17.967,12.829Z" transform="translate(-0.287 -0.054)" fill="#ab86ff"/>
      <path id="Path_630" data-name="Path 630" d="M10.5,14.285a1.964,1.964,0,1,0,2.778-2.778L9.114,7.34a1.964,1.964,0,0,0-2.778,2.778Z" transform="translate(-0.105 -0.121)" fill="#ab86ff"/>
      <path id="Path_631" data-name="Path 631" d="M5.932,20.936h5.893a1.964,1.964,0,0,0,0-3.929H5.932a1.964,1.964,0,0,0,0,3.929Z" transform="translate(-0.073 -0.303)" fill="#ab86ff"/>
    </g>
  </g>
</svg>
