<svg xmlns="http://www.w3.org/2000/svg" width="74.297" height="74.297" viewBox="0 0 74.297 74.297">
  <g id="Group_531" data-name="Group 531" transform="translate(-15842.125 2312.297)">
    <g id="google-analytics" transform="translate(15842.125 -2312.297)">
      <path id="Path_663" data-name="Path 663" d="M74.3,37.149a37.156,37.156,0,1,1-6.512-21.015A36.969,36.969,0,0,1,74.3,37.149Z" fill="#636363"/>
    </g>
    <g id="internet" transform="translate(15859.538 -2295.174)">
      <g id="Group_527" data-name="Group 527">
        <path id="Path_670" data-name="Path 670" d="M19.872,0A19.872,19.872,0,1,0,39.744,19.872,19.895,19.895,0,0,0,19.872,0ZM16.807,2.019a25.326,25.326,0,0,0-4.4,4.93A24.022,24.022,0,0,0,10.9,9.5H5.033A18.142,18.142,0,0,1,16.807,2.019Zm2.186,26.654h-6.96a20.614,20.614,0,0,1-1.892-7.83h8.852ZM3.942,11.256h6.15a22.888,22.888,0,0,0-1.711,7.83h-6.6A17.987,17.987,0,0,1,3.942,11.256ZM1.785,20.844h6.6a22.213,22.213,0,0,0,1.717,7.83H4.046A17.984,17.984,0,0,1,1.785,20.844Zm3.379,9.588h5.763a24.049,24.049,0,0,0,1.485,2.46,24.377,24.377,0,0,0,4.363,4.827A18.141,18.141,0,0,1,5.164,30.432Zm13.829,6.8a22.567,22.567,0,0,1-6.048-6.8h6.048Zm0-18.145H10.141A20.8,20.8,0,0,1,12,11.256h7v7.83Zm0-9.588h-6.1q.449-.792.97-1.561a22.475,22.475,0,0,1,5.129-5.41V9.5Zm18.975,9.588h-6.6a22.887,22.887,0,0,0-1.711-7.83H35.8A17.987,17.987,0,0,1,37.968,19.086ZM34.712,9.5H28.843a24.042,24.042,0,0,0-1.507-2.548,25.336,25.336,0,0,0-4.4-4.93A18.144,18.144,0,0,1,34.712,9.5ZM20.751,2.526a22.475,22.475,0,0,1,5.129,5.41q.522.769.97,1.561h-6.1Zm0,8.73h7a20.8,20.8,0,0,1,1.856,7.83H20.751v-7.83Zm0,9.588H29.6a20.612,20.612,0,0,1-1.892,7.83h-6.96v-7.83Zm0,9.588H26.8a22.568,22.568,0,0,1-6.048,6.8ZM22.97,37.72a24.382,24.382,0,0,0,4.363-4.827,24.05,24.05,0,0,0,1.485-2.46H34.58A18.141,18.141,0,0,1,22.97,37.72ZM35.7,28.673H29.647a22.212,22.212,0,0,0,1.717-7.83h6.6A17.985,17.985,0,0,1,35.7,28.673Z" fill="#fff"/>
      </g>
    </g>
  </g>
</svg>
