<svg xmlns="http://www.w3.org/2000/svg" xmlns:xlink="http://www.w3.org/1999/xlink" width="658" height="637.524" viewBox="0 0 658 637.524">
  <defs>
    <linearGradient id="linear-gradient" y1="0.5" x2="1" y2="0.5" gradientUnits="objectBoundingBox">
      <stop offset="0" stop-color="#fff"/>
      <stop offset="1" stop-color="#f2f5ff"/>
    </linearGradient>
    <linearGradient id="linear-gradient-2" x1="1.162" y1="0.5" x2="-0.084" y2="0.5" gradientUnits="objectBoundingBox">
      <stop offset="0" stop-color="#ff9f55"/>
      <stop offset="1" stop-color="#ffd255"/>
    </linearGradient>
    <linearGradient id="linear-gradient-3" x1="0" y1="0.5" x2="1" y2="0.5" xlink:href="#linear-gradient-2"/>
    <linearGradient id="linear-gradient-4" x1="1.522" y1="0.5" x2="-0.255" y2="0.5" xlink:href="#linear-gradient-2"/>
    <linearGradient id="linear-gradient-6" x1="1" y1="0.5" x2="0" y2="0.5" xlink:href="#linear-gradient-2"/>
    <linearGradient id="linear-gradient-7" x1="-138.074" y1="0.5" x2="-137.074" y2="0.5" xlink:href="#linear-gradient-2"/>
  </defs>
  <g id="_18916" data-name="18916" transform="translate(-61.301 -61.273)">
    <g id="Group_718" data-name="Group 718" transform="translate(366.641 509.13)">
      <rect id="Rectangle_311" data-name="Rectangle 311" width="56.516" height="171.658" fill="#aebecc"/>
    </g>
    <g id="Group_719" data-name="Group 719" transform="translate(150.889 247.548)">
      <path id="Path_775" data-name="Path 775" d="M139.216,515.94H577.592a24.822,24.822,0,0,0,24.821-24.823V196.489a24.821,24.821,0,0,0-24.821-24.821H139.216A24.821,24.821,0,0,0,114.4,196.489V491.118A24.824,24.824,0,0,0,139.216,515.94Z" transform="translate(-114.395 -171.668)" fill="#dedede"/>
    </g>
    <g id="Group_720" data-name="Group 720" transform="translate(170.004 210.906)">
      <rect id="Rectangle_312" data-name="Rectangle 312" width="449.793" height="326.964" fill="url(#linear-gradient)"/>
    </g>
    <g id="Group_721" data-name="Group 721" transform="translate(170.004 210.906)">
      <rect id="Rectangle_313" data-name="Rectangle 313" width="449.793" height="39.491" fill="url(#linear-gradient-2)"/>
    </g>
    <g id="Group_722" data-name="Group 722" transform="translate(379.159 546.814)">
      <circle id="Ellipse_74" data-name="Ellipse 74" cx="15.741" cy="15.741" r="15.741" fill="#949494"/>
    </g>
    <rect id="Rectangle_314" data-name="Rectangle 314" width="254.259" height="12.959" transform="translate(267.771 674.31)" fill="#e3e3e3"/>
    <path id="Path_776" data-name="Path 776" d="M195.645,172.155H142.22a5.365,5.365,0,0,1-5.364-5.366V162.6a5.363,5.363,0,0,1,5.364-5.364h53.425a5.363,5.363,0,0,1,5.364,5.364v4.193A5.365,5.365,0,0,1,195.645,172.155Z" transform="translate(51.933 65.958)" fill="#f5f7ff"/>
    <path id="Path_777" data-name="Path 777" d="M129.934,266.778c-26.26,0-34.169-8.56-34.169-8.56s-7.909,8.56-34.169,8.56c0,0-5.813,39.17,34.169,59.584C135.745,305.948,129.934,266.778,129.934,266.778ZM95.765,322.1C60.788,304.237,65.874,269.97,65.874,269.97c22.973,0,29.891-7.488,29.891-7.488s6.918,7.488,29.891,7.488C125.655,269.972,130.741,304.237,95.765,322.1Z" transform="translate(0 135.371)" fill="url(#linear-gradient-3)"/>
    <path id="Path_778" data-name="Path 778" d="M89.818,265.037v45.13C63.34,296.646,67.189,270.7,67.189,270.7,84.582,270.7,89.818,265.037,89.818,265.037Z" transform="translate(3.912 140.058)" fill="url(#linear-gradient-4)"/>
    <g id="Group_723" data-name="Group 723" transform="translate(198.139 121.12)">
      <path id="Path_779" data-name="Path 779" d="M184.687,126.881H142.4v-8.994a21.145,21.145,0,1,1,42.29,0Zm-38.374-3.916h34.459v-5.079a17.23,17.23,0,1,0-34.459,0Z" transform="translate(-142.397 -96.741)" fill="#ffca55"/>
    </g>
    <path id="Path_780" data-name="Path 780" d="M184.477,112.142H146.648a7.191,7.191,0,0,0-7.191,7.191v37.83a7.191,7.191,0,0,0,7.191,7.191h37.829a7.191,7.191,0,0,0,7.191-7.191v-37.83A7.191,7.191,0,0,0,184.477,112.142ZM167.587,139.4v12.551h-4.046V139.4a7.569,7.569,0,1,1,4.046,0Z" transform="translate(53.721 34.965)" fill="url(#linear-gradient-4)"/>
    <path id="Path_781" data-name="Path 781" d="M322.062,99.269q0,1.612-.133,3.189a37.469,37.469,0,0,1-1.132,6.567,38,38,0,0,1-74.564-6.167q-.17-1.772-.169-3.587a38,38,0,0,1,64.992-26.745v0A37.846,37.846,0,0,1,322.062,99.269Z" transform="translate(126.997 0)" fill="url(#linear-gradient-6)"/>
    <path id="Path_782" data-name="Path 782" d="M277.063,131.977a36.82,36.82,0,0,1-23.134-14.41,1.936,1.936,0,0,1,.233-1.146c3.149-5.589,1.1-4.644.472-8.265s-2.44-2.045-2.992-4.25,1.181-2.03-2.6-3.457a9.713,9.713,0,0,1-2.141-1.272c-.11-1.146-.164-2.3-.164-3.479a36.783,36.783,0,0,1,14.41-29.232,15.641,15.641,0,0,1-2.109,5.818c-1.89,3.287-2.833,1.441-2.833,6.3s3.273,6.625,4.942,9.675,4.942,5.28,0,6.844-7.146,3.959-7.146,5.59-.945,1.638,0,3.84,1.574.734,2.308,2.835,0,2.1.945,2.833,2.519,2.416,5.459,2.205,14.376-1.934,15.006,4.124C278.2,121.131,276.921,128.23,277.063,131.977Z" transform="translate(127.463 3.569)" fill="#fff"/>
    <path id="Path_783" data-name="Path 783" d="M259.552,69.281c-.629.83-3.042,4.428-3.042,6.618s-.84,6.417,1.784,8.762,7.031,1.178,6.611-1.492,2.835-4.244,4.2-4.768,1.47-5.838.316-7.485-5.666-2.609-7.451-2.44A4.039,4.039,0,0,0,259.552,69.281Z" transform="translate(134.089 4.938)" fill="#fff"/>
    <path id="Path_784" data-name="Path 784" d="M280.159,71.883c-1.1-1.417-3.778-3.306-4.407-1.1s1.26,1.576,0,3.621-2.361,2.2-2.519,3.935-.629,2.833.945,4.25,4.88.316,5.982.316,2.833.472,3.621-.945,0-4.094,0-4.094L280.632,73.3Z" transform="translate(145.541 5.842)" fill="#fff"/>
    <path id="Path_785" data-name="Path 785" d="M300.139,89.4a36.929,36.929,0,0,1-19.556,23.719,2.472,2.472,0,0,0-1.171-1.306c-1.574-.737-1.309-2.361-1.782-4.515s-1.313-1.309-2.258-2.779a4.307,4.307,0,0,1-.418-4.461c.734-1.466.1-1.152,3.149-2.676s3.306-1.048,4.094-1.417a17.594,17.594,0,0,1,6.793-.471C291.3,95.817,295.963,91.2,300.139,89.4Z" transform="translate(146.55 19.332)" fill="#fff"/>
    <path id="Path_786" data-name="Path 786" d="M303.582,94.356q0,1.564-.13,3.091a4.859,4.859,0,0,1-2.1-1.179,5.435,5.435,0,0,1-.316-2.676c0-.945-3.149-4.564-3.149-4.564l-3.306,2.361a21.432,21.432,0,0,0,0,3.252c.157.945,2.779,2.357,2.938,3.516a2.016,2.016,0,0,0,.786,1.52s-1.419,5.332-1.782,1.21c-.106-1.195-1.1-.472-1.1-1.259s-2.361-2.1-2.361-2.1a8.483,8.483,0,0,0-2.415-2.676c-2.045-1.73-6.611,3.992-6.611,3.992a34.9,34.9,0,0,1,0,9.861c-.069.493-6.422,3.462-8.185,3.462s-4.566-9.287-4.566-10.23,1.89-1.731,2.96-3.091.346-4.465.661-7.139.786-1.576.786-2.047,2.205-2.205,4.094-3.7,1.26-.24,3.621-.01,4.566-3.537,5.982-4.433,2.045.267,3.149,0,.945-.52,2.2-1.124.316-2.386,0-4.288A57.254,57.254,0,0,0,292.9,68.42,36.707,36.707,0,0,1,303.582,94.356Z" transform="translate(144.335 4.913)" fill="#fff"/>
    <rect id="Rectangle_315" data-name="Rectangle 315" width="15.8" height="86.124" transform="translate(184.191 437.5)" fill="#e0e0e0"/>
    <rect id="Rectangle_316" data-name="Rectangle 316" width="15.8" height="111.159" transform="translate(219.072 412.465)" fill="#e0e0e0"/>
    <rect id="Rectangle_317" data-name="Rectangle 317" width="15.8" height="68.55" transform="translate(253.953 455.074)" fill="#e0e0e0"/>
    <rect id="Rectangle_318" data-name="Rectangle 318" width="15.8" height="101.771" transform="translate(288.834 421.854)" fill="#e0e0e0"/>
    <rect id="Rectangle_319" data-name="Rectangle 319" width="15.8" height="125.122" transform="translate(323.715 398.502)" fill="#e0e0e0"/>
    <rect id="Rectangle_320" data-name="Rectangle 320" width="15.8" height="80.828" transform="translate(358.596 442.797)" fill="#e0e0e0"/>
    <rect id="Rectangle_321" data-name="Rectangle 321" width="15.8" height="62.346" transform="translate(184.191 461.279)" fill="#4aafff"/>
    <rect id="Rectangle_322" data-name="Rectangle 322" width="15.8" height="80.47" transform="translate(219.072 443.155)" fill="#4aafff"/>
    <rect id="Rectangle_323" data-name="Rectangle 323" width="15.8" height="49.625" transform="translate(253.953 474)" fill="#4aafff"/>
    <rect id="Rectangle_324" data-name="Rectangle 324" width="15.8" height="73.673" transform="translate(288.834 449.951)" fill="#4aafff"/>
    <rect id="Rectangle_325" data-name="Rectangle 325" width="15.8" height="90.577" transform="translate(323.715 433.049)" fill="#4aafff"/>
    <rect id="Rectangle_326" data-name="Rectangle 326" width="15.8" height="58.512" transform="translate(358.596 465.112)" fill="#4aafff"/>
    <g id="Group_761" data-name="Group 761" transform="translate(107.815 457.452)">
      <g id="Group_726" data-name="Group 726" transform="translate(0.07 112.622)">
        <g id="Group_725" data-name="Group 725">
          <g id="Group_724" data-name="Group 724">
            <path id="Path_787" data-name="Path 787" d="M97.422,363.893a7.957,7.957,0,0,1,1.031,2.725,13.063,13.063,0,0,0,1.259,3.216,30.648,30.648,0,0,1,1.529,5.364c.017.386-.844,2.815-.721,3.591s.565,2.315-.132,2.418-1.488-1.159-1.488-1.159a1.019,1.019,0,0,1-.525.987,1.728,1.728,0,0,1-1.755.064s-.422.786-.955.891a2.154,2.154,0,0,1-1.745-.236,2.113,2.113,0,0,1-1.326.427,1.743,1.743,0,0,1-1.471-.916s-1.311.267-1.691-.346a5.821,5.821,0,0,1-.472-1.819,21.161,21.161,0,0,1,1.662-9.166,8.125,8.125,0,0,0-.434-7.122Z" transform="translate(-88.909 -362.811)" fill="#eea886"/>
          </g>
        </g>
      </g>
      <g id="Group_728" data-name="Group 728" transform="translate(0 122.771)">
        <g id="Group_727" data-name="Group 727">
          <path id="Path_788" data-name="Path 788" d="M99.112,375.444s.116-4.492-1.065-5.448-1.316.667-1.316.667.16-1.6-1.132-1.819-1.347,1.687-1.347,1.687a1.249,1.249,0,0,0-1.569-.982c-1.358.253-1.034,1.831-1.034,1.831s-1.3-1.546-2.138-.061c-1.419,2.507-.051,5.469-.051,5.469s.4.678,1.691.346c0,0,.864,1.741,2.8.489,0,0,1.979,1.09,2.7-.656A1.64,1.64,0,0,0,99.112,375.444Z" transform="translate(-88.867 -368.826)" fill="#db9c7c"/>
        </g>
      </g>
      <path id="Path_789" data-name="Path 789" d="M112.57,329.377s-7.691,25.631-10.289,35.087c-.815,2.965-2.788,31.282-3.135,32.423s-10.1,2.7-10.1,2.7,1.181-35.424,1.293-37.356,10.764-41.492,13.862-42.9c2.32-1.058,3.547-.182,6.471,1.989C114.772,324.364,112.57,329.377,112.57,329.377Z" transform="translate(-88.747 -280.385)" fill="#323657"/>
      <g id="Group_730" data-name="Group 730" transform="translate(60.537 49.445)">
        <g id="Group_729" data-name="Group 729">
          <path id="Path_790" data-name="Path 790" d="M129.116,331.782l1.988-.736s-2.479-5.816-3.559-5.675a27.05,27.05,0,0,0-2.8.574Z" transform="translate(-124.744 -325.369)" fill="#ead8cf"/>
        </g>
      </g>
      <g id="Group_732" data-name="Group 732" transform="translate(52.658 49.056)">
        <g id="Group_731" data-name="Group 731">
          <path id="Path_791" data-name="Path 791" d="M132.779,332.945c-.255-.189-4.223-7.806-4.223-7.806l-8.481,1.154,4.583,9.021Z" transform="translate(-120.075 -325.139)" fill="#da9b5b"/>
        </g>
      </g>
      <g id="Group_734" data-name="Group 734" transform="translate(8.372 223.368)">
        <g id="Group_733" data-name="Group 733">
          <path id="Path_792" data-name="Path 792" d="M103.04,429.072s-.7,4.866-.788,5.6-7.8-.432-7.8-.432l-.624-5.793S102.075,428.387,103.04,429.072Z" transform="translate(-93.829 -428.444)" fill="#424773"/>
        </g>
      </g>
      <g id="Group_736" data-name="Group 736" transform="translate(7.166 228.645)">
        <g id="Group_735" data-name="Group 735">
          <path id="Path_793" data-name="Path 793" d="M102.825,431.9a20.811,20.811,0,0,0,4.806,4.21c2.362,1.279,6.076,1.785,7.473,3.108,1.009.953,3.673,5.065-6.14,4.983s-14.545.58-15.6-1,1.52-11.636,1.52-11.636S97.213,432.408,102.825,431.9Z" transform="translate(-93.114 -431.571)" fill="#292c47"/>
        </g>
      </g>
      <g id="Group_738" data-name="Group 738" transform="translate(63.619 223.368)">
        <g id="Group_737" data-name="Group 737">
          <path id="Path_794" data-name="Path 794" d="M135.782,429.072s-.7,4.866-.79,5.6-7.8-.432-7.8-.432l-.624-5.793S134.819,428.387,135.782,429.072Z" transform="translate(-126.571 -428.444)" fill="#424773"/>
        </g>
      </g>
      <g id="Group_740" data-name="Group 740" transform="translate(62.414 228.645)">
        <g id="Group_739" data-name="Group 739">
          <path id="Path_795" data-name="Path 795" d="M135.566,431.9a20.811,20.811,0,0,0,4.806,4.21c2.362,1.279,11.059,2.329,12.456,3.651,1.009.953,2.686,4.8-11.123,4.439-9.81-.255-14.545.58-15.6-1s1.522-11.636,1.522-11.636S129.821,432.465,135.566,431.9Z" transform="translate(-125.856 -431.571)" fill="#292c47"/>
        </g>
      </g>
      <g id="Group_742" data-name="Group 742" transform="translate(7.167 98.968)">
        <g id="Group_741" data-name="Group 741">
          <path id="Path_796" data-name="Path 796" d="M109.916,354.719s-7.244,11.511-6.7,21.915S100.585,398.4,99.5,409.269c-1.213,12.119-6.179,40.805-6.36,47.286s.771,27.18.771,27.18l9.94.228s8.347-50.153,10.511-55.271S127.244,387.094,127.6,383,109.916,354.719,109.916,354.719Z" transform="translate(-93.114 -354.719)" fill="#292c47"/>
        </g>
      </g>
      <g id="Group_744" data-name="Group 744" transform="translate(20.324 96.984)">
        <g id="Group_743" data-name="Group 743">
          <path id="Path_797" data-name="Path 797" d="M142.7,357.086s5.46,28.52,6.181,34.888,1.2,30.821,1.562,34.8,3.366,51.967,4.325,58H142.056S132.3,449.8,132.3,433.257s-7.536-35.971-12.4-46.888-16-11.175-18.989-31.43C100.91,354.936,138.646,350.662,142.7,357.086Z" transform="translate(-100.912 -353.543)" fill="#292c47"/>
        </g>
      </g>
      <g id="Group_746" data-name="Group 746" transform="translate(29.972 1.298)">
        <g id="Group_745" data-name="Group 745">
          <path id="Path_798" data-name="Path 798" d="M112.716,297.726s9.724-3.631,14.208,3.77,4.051,22.222-.849,24.045-12.265.871-14.774-3.761-4.775-11.329-4.667-15.8S110.163,299.018,112.716,297.726Z" transform="translate(-106.63 -296.835)" fill="#eea886"/>
        </g>
      </g>
      <g id="Group_748" data-name="Group 748" transform="translate(32.741 21.114)">
        <g id="Group_747" data-name="Group 747">
          <path id="Path_799" data-name="Path 799" d="M123.891,317.809s-.4,2.627.263,3.918-12.6,1.328-12.6,1.328a87.467,87.467,0,0,0-3.12-12.979C106.395,304.133,123.891,317.809,123.891,317.809Z" transform="translate(-108.271 -308.579)" fill="#eea886"/>
        </g>
      </g>
      <g id="Group_750" data-name="Group 750" transform="translate(29.165 0.18)">
        <g id="Group_749" data-name="Group 749">
          <path id="Path_800" data-name="Path 800" d="M109.895,318.6s.915,1.512,4.654.925,8.3-5.56,9.859-6.1,1.576-1.463,1.576-1.463l.977,1.429,1.657.1s-1.512-4.448.769-6.263-2.367-14.4-14.354-10.208c0,0-9.208,2.538-8.872,7.774S107.833,316,109.895,318.6Z" transform="translate(-106.152 -296.173)" fill="#323657"/>
        </g>
      </g>
      <g id="Group_752" data-name="Group 752" transform="translate(34.511 30.473)">
        <g id="Group_751" data-name="Group 751">
          <path id="Path_801" data-name="Path 801" d="M124.221,317.759s-.04-2.472-1.161-2.708-12.365-1.316-13.74-.776v2.879S111.971,318.783,124.221,317.759Z" transform="translate(-109.32 -314.126)" fill="#e2d2ca"/>
        </g>
      </g>
      <g id="Group_754" data-name="Group 754" transform="translate(45.252 12.153)">
        <g id="Group_753" data-name="Group 753">
          <path id="Path_802" data-name="Path 802" d="M119.181,305.178c-.211-.879-2.443-3.388-3.3-.7s1.293,6.3,2.491,5.993S119.712,307.405,119.181,305.178Z" transform="translate(-115.686 -303.268)" fill="#eea886"/>
        </g>
      </g>
      <g id="Group_756" data-name="Group 756" transform="translate(94.019 63.303)">
        <g id="Group_755" data-name="Group 755">
          <path id="Path_803" data-name="Path 803" d="M144.606,333.584a.057.057,0,0,0-.019,0C144.665,333.617,144.675,333.619,144.606,333.584Z" transform="translate(-144.587 -333.582)" fill="#323657"/>
        </g>
      </g>
      <g id="Group_758" data-name="Group 758" transform="translate(27.663 3.062)">
        <g id="Group_757" data-name="Group 757">
          <path id="Path_804" data-name="Path 804" d="M110.888,297.881s-12.4.97-.381,19.548Z" transform="translate(-105.262 -297.881)" fill="#323657"/>
        </g>
      </g>
      <path id="Path_805" data-name="Path 805" d="M163.39,302.9a2.673,2.673,0,0,0-1.73-1.6,4.3,4.3,0,0,0-1.988-1.279,1.777,1.777,0,0,0-.084-.17c.879-.945,3.435-2.71,3.584-3.046.181-.407.135-.452-.361-.722-.413-.226-4.585,2.489-5.977,3.408-.343.216-.619.417-.675.462a10.807,10.807,0,0,0-1.821,1.252,2.992,2.992,0,0,0-.211.241c-.69.883-2.317,7.953-2.317,7.953l2.9,1.3,2.8,2.374s3.267-2.7,4.1-3.554a8.422,8.422,0,0,0,1.455-2.259,3.907,3.907,0,0,1,.277-.408c.38-.513.955-1.2.955-1.2a4.6,4.6,0,0,0,.454-1.394C164.7,303.423,163.39,302.9,163.39,302.9Z" transform="translate(-45.603 -296.066)" fill="#efaa88"/>
      <g id="Group_760" data-name="Group 760" transform="translate(13.534 12.153)">
        <g id="Group_759" data-name="Group 759">
          <path id="Path_806" data-name="Path 806" d="M151.364,328.964c-7.71-1.017-18.6-3.743-18.6-3.743l-14.9-.607s-13.676,3.01-19.062,5.445c-.511.229-.513,12.2-1.915,15.34l4.465,9.42s2.58,18.662,3.115,26.961c.246,3.81-5.32,35.728-5.32,35.728a103.041,103.041,0,0,0,16.134,2.877c10.17,1.12,35.58-.4,35.74-1.606s-4.922-44.728-5.146-46.983c-.346-3.459,1.193-21.843,1.193-21.843,2.349-1.821,22.965-11.391,28.589-16.377,1.505-1.335,7.858-7.522,9.665-9.658,6.4-7.561,11.638-14.049,12.275-15.448.726-.8-6.949-4.966-7.645-5.2-.609-.2-9.253,11-12.581,14.6a93.312,93.312,0,0,1-7.65,6.093S156.187,329.241,151.364,328.964Z" transform="translate(-96.888 -303.268)" fill="#323657"/>
        </g>
      </g>
    </g>
    <path id="Path_807" data-name="Path 807" d="M256.634,248.433H135.762a1.633,1.633,0,0,0-1.632,1.633v5.884a1.632,1.632,0,0,0,1.632,1.632H256.634a1.632,1.632,0,0,0,1.632-1.632v-5.885A1.632,1.632,0,0,0,256.634,248.433Z" transform="translate(50.059 128.645)" fill="#e0e0e0"/>
    <path id="Path_808" data-name="Path 808" d="M211.617,236.9H135.762a1.632,1.632,0,0,0-1.632,1.632v5.884a1.632,1.632,0,0,0,1.632,1.632h75.855a1.632,1.632,0,0,0,1.632-1.632v-5.884A1.631,1.631,0,0,0,211.617,236.9Z" transform="translate(50.059 120.721)" fill="#e0e0e0"/>
    <path id="Path_809" data-name="Path 809" d="M231.356,226.089H135.763a1.632,1.632,0,0,0-1.632,1.632V233.6a1.632,1.632,0,0,0,1.632,1.632h95.594a1.632,1.632,0,0,0,1.632-1.632v-5.884A1.631,1.631,0,0,0,231.356,226.089Z" transform="translate(50.06 113.287)" fill="#e0e0e0"/>
    <path id="Path_810" data-name="Path 810" d="M277.818,215.03H135.763a1.632,1.632,0,0,0-1.632,1.632v5.884a1.632,1.632,0,0,0,1.632,1.632H277.818a1.632,1.632,0,0,0,1.632-1.632v-5.884A1.632,1.632,0,0,0,277.818,215.03Z" transform="translate(50.06 105.685)" fill="#e0e0e0"/>
    <path id="Path_811" data-name="Path 811" d="M185.378,204.544H135.763a1.632,1.632,0,0,0-1.632,1.632v5.884a1.632,1.632,0,0,0,1.632,1.632h49.615a1.632,1.632,0,0,0,1.632-1.632v-5.884A1.632,1.632,0,0,0,185.378,204.544Z" transform="translate(50.06 98.478)" fill="#e0e0e0"/>
    <g id="Group_770" data-name="Group 770" transform="translate(489.472 268.138)">
      <g id="Group_763" data-name="Group 763">
        <g id="Group_762" data-name="Group 762">
          <path id="Path_812" data-name="Path 812" d="M386.957,288.3a53.778,53.778,0,1,0-36.219-101.273c-1.137.407-2.258.85-3.351,1.325a53.778,53.778,0,0,0,39.57,99.949Zm-56.074-37.059a40.275,40.275,0,0,1,21.875-50.548q1.23-.534,2.514-1a40.32,40.32,0,1,1-24.389,51.544Z" transform="translate(-315.054 -183.87)" fill="#4aafff"/>
        </g>
      </g>
      <g id="Group_765" data-name="Group 765" transform="translate(65.81 2.455)">
        <g id="Group_764" data-name="Group 764">
          <path id="Path_813" data-name="Path 813" d="M354.056,198.173l4.013-12.847a53.849,53.849,0,0,1,37.739,49.728l-13.455.4a40.38,40.38,0,0,0-28.3-37.282Z" transform="translate(-354.056 -185.325)" fill="#1a598c"/>
        </g>
      </g>
      <g id="Group_767" data-name="Group 767" transform="translate(32.329)">
        <g id="Group_766" data-name="Group 766">
          <path id="Path_814" data-name="Path 814" d="M339.587,200.693l-5.373-12.341c1.093-.474,2.214-.918,3.351-1.325a53.529,53.529,0,0,1,34.139-.7l-4.013,12.848a40.127,40.127,0,0,0-25.592.525Q340.821,200.157,339.587,200.693Z" transform="translate(-334.214 -183.87)" fill="#2273b5"/>
        </g>
      </g>
      <g id="Group_769" data-name="Group 769" transform="translate(18.944 4.481)">
        <g id="Group_768" data-name="Group 768">
          <path id="Path_815" data-name="Path 815" d="M326.281,194.862a53.489,53.489,0,0,1,13.387-8.336l5.372,12.341A40.066,40.066,0,0,0,335,205.116Z" transform="translate(-326.281 -186.526)" fill="#5caef2"/>
        </g>
      </g>
    </g>
    <path id="Path_816" data-name="Path 816" d="M313.09,212.7H282.611a2.853,2.853,0,0,1-2.853-2.853v-2.027a2.852,2.852,0,0,1,2.853-2.853H313.09a2.853,2.853,0,0,1,2.853,2.853v2.027A2.854,2.854,0,0,1,313.09,212.7Z" transform="translate(150.157 98.766)" fill="#78c2ff"/>
    <path id="Path_817" data-name="Path 817" d="M292.067,234.222H261.588a2.856,2.856,0,0,1-2.855-2.853v-2.027a2.855,2.855,0,0,1,2.855-2.853h30.479a2.855,2.855,0,0,1,2.855,2.853v2.027A2.855,2.855,0,0,1,292.067,234.222Z" transform="translate(135.705 113.562)" fill="#4aafff"/>
    <path id="Path_818" data-name="Path 818" d="M315.243,256.586H284.764a2.853,2.853,0,0,1-2.853-2.853v-2.027a2.853,2.853,0,0,1,2.853-2.853h30.479a2.854,2.854,0,0,1,2.853,2.853v2.027A2.854,2.854,0,0,1,315.243,256.586Z" transform="translate(151.637 128.934)" fill="#2273b5"/>
    <path id="Path_819" data-name="Path 819" d="M351.749,271.7H321.27a2.855,2.855,0,0,1-2.855-2.853v-2.027a2.853,2.853,0,0,1,2.855-2.853h30.479a2.856,2.856,0,0,1,2.855,2.853v2.027A2.856,2.856,0,0,1,351.749,271.7Z" transform="translate(176.728 139.323)" fill="#1a598c"/>
    <g id="Group_805" data-name="Group 805" transform="translate(407.229 405.365)">
      <g id="Group_799" data-name="Group 799">
        <g id="Group_774" data-name="Group 774">
          <g id="Group_773" data-name="Group 773">
            <g id="Group_772" data-name="Group 772">
              <g id="Group_771" data-name="Group 771">
                <path id="Path_820" data-name="Path 820" d="M267.876,375.5l-1.563-1.657,40.464-38.181,40.955,8.874,39.12-44.612,34.12,1.925L447.543,265.2l1.846,1.338-27.3,37.662-34.252-1.934-39.271,44.786-41.094-8.9Z" transform="translate(-266.313 -265.197)" fill="#4aafff"/>
              </g>
            </g>
          </g>
        </g>
        <g id="Group_777" data-name="Group 777" transform="translate(75.755 74.517)">
          <g id="Group_776" data-name="Group 776">
            <g id="Group_775" data-name="Group 775">
              <circle id="Ellipse_75" data-name="Ellipse 75" cx="6.08" cy="6.08" r="6.08" fill="#fff"/>
            </g>
          </g>
        </g>
        <g id="Group_780" data-name="Group 780" transform="translate(74.614 73.377)">
          <g id="Group_779" data-name="Group 779">
            <g id="Group_778" data-name="Group 778">
              <path id="Path_821" data-name="Path 821" d="M319.281,322.96a7.219,7.219,0,1,1,5.528-8.584A7.229,7.229,0,0,1,319.281,322.96Zm-2.573-11.884a4.939,4.939,0,1,0,5.872,3.781A4.943,4.943,0,0,0,316.707,311.075Z" transform="translate(-310.532 -308.683)" fill="#4aafff"/>
            </g>
          </g>
        </g>
        <g id="Group_783" data-name="Group 783" transform="translate(114.939 30.202)">
          <g id="Group_782" data-name="Group 782">
            <g id="Group_781" data-name="Group 781">
              <circle id="Ellipse_76" data-name="Ellipse 76" cx="6.08" cy="6.08" r="6.08" fill="#fff"/>
            </g>
          </g>
        </g>
        <g id="Group_786" data-name="Group 786" transform="translate(113.798 29.062)">
          <g id="Group_785" data-name="Group 785">
            <g id="Group_784" data-name="Group 784">
              <path id="Path_822" data-name="Path 822" d="M342.5,296.7a7.219,7.219,0,1,1,5.528-8.584A7.228,7.228,0,0,1,342.5,296.7Zm-2.572-11.884a4.939,4.939,0,1,0,5.874,3.781A4.946,4.946,0,0,0,339.931,284.812Z" transform="translate(-333.755 -282.42)" fill="#4aafff"/>
            </g>
          </g>
        </g>
        <g id="Group_789" data-name="Group 789" transform="translate(148.808 31.559)">
          <g id="Group_788" data-name="Group 788">
            <g id="Group_787" data-name="Group 787">
              <circle id="Ellipse_77" data-name="Ellipse 77" cx="6.08" cy="6.08" r="6.08" fill="#fff"/>
            </g>
          </g>
        </g>
        <g id="Group_792" data-name="Group 792" transform="translate(147.668 30.419)">
          <g id="Group_791" data-name="Group 791">
            <g id="Group_790" data-name="Group 790">
              <path id="Path_823" data-name="Path 823" d="M362.576,297.5a7.219,7.219,0,1,1,5.528-8.584A7.228,7.228,0,0,1,362.576,297.5ZM360,285.616a4.938,4.938,0,1,0,5.872,3.781A4.946,4.946,0,0,0,360,285.616Z" transform="translate(-353.828 -283.224)" fill="#4aafff"/>
            </g>
          </g>
        </g>
        <g id="Group_795" data-name="Group 795" transform="translate(34.699 66.188)">
          <g id="Group_794" data-name="Group 794">
            <g id="Group_793" data-name="Group 793">
              <circle id="Ellipse_78" data-name="Ellipse 78" cx="6.08" cy="6.08" r="6.08" fill="#fff"/>
            </g>
          </g>
        </g>
        <g id="Group_798" data-name="Group 798" transform="translate(33.557 65.049)">
          <g id="Group_797" data-name="Group 797">
            <g id="Group_796" data-name="Group 796">
              <path id="Path_824" data-name="Path 824" d="M294.949,318.023a7.219,7.219,0,1,1,5.528-8.584A7.227,7.227,0,0,1,294.949,318.023Zm-2.573-11.884a4.939,4.939,0,1,0,5.872,3.783A4.947,4.947,0,0,0,292.375,306.139Z" transform="translate(-286.2 -303.748)" fill="#4aafff"/>
            </g>
          </g>
        </g>
      </g>
      <g id="Group_800" data-name="Group 800" transform="translate(34.697 94.868)">
        <rect id="Rectangle_327" data-name="Rectangle 327" width="24.888" height="4.792" fill="#e0e0e0"/>
      </g>
      <g id="Group_801" data-name="Group 801" transform="translate(52.006 45.683)">
        <rect id="Rectangle_328" data-name="Rectangle 328" width="24.888" height="4.794" fill="#e0e0e0"/>
      </g>
      <g id="Group_802" data-name="Group 802" transform="translate(103.634 79.959)">
        <rect id="Rectangle_329" data-name="Rectangle 329" width="24.888" height="4.792" fill="#e0e0e0"/>
      </g>
      <g id="Group_803" data-name="Group 803" transform="translate(125.959 12.648)">
        <rect id="Rectangle_330" data-name="Rectangle 330" width="24.888" height="4.794" fill="#e0e0e0"/>
      </g>
      <g id="Group_804" data-name="Group 804" transform="translate(162.107 52.757)">
        <rect id="Rectangle_331" data-name="Rectangle 331" width="24.888" height="4.792" fill="#e0e0e0"/>
      </g>
    </g>
    <g id="Group_806" data-name="Group 806" transform="translate(394.899 438.592)">
      <path id="Path_825" data-name="Path 825" d="M418.334,341.589s-9.218-20.886,1.476-19.158a38.985,38.985,0,0,1,7.379,9.142c2.83,4.645,8.714,16.936,8.5,21.1s-3.174,7.257-6.366,13.934c0,0-6.64,12.394-6.918,13.885l-7.018-3.643S421.327,365,425.519,354.58Z" transform="translate(-152.029 -259.155)" fill="#275070"/>
      <path id="Path_826" data-name="Path 826" d="M506.379,390.436l-141.257-24.05,4.088-24.016,141.258,24.052Z" transform="translate(-186.067 -245.379)" fill="url(#linear-gradient-7)"/>
      <rect id="Rectangle_332" data-name="Rectangle 332" width="7.654" height="18.49" transform="matrix(0.986, 0.168, -0.168, 0.986, 175.121, 98.584)" fill="#2d3038"/>
      <path id="Path_827" data-name="Path 827" d="M395.568,446.927h-1.74s.58-6.571-1.031-6.635-5.6,5.346-7.986,6.184-14.619,1.544-14.685-.71,4.7-3.155,6.182-3.8,8.7-7.666,9.984-8.5,3.486-6.658,3.486-6.658l6.832-.3s.386,5.442.8,8.322a25.759,25.759,0,0,1,.282,2.7C397.757,439.971,395.568,446.927,395.568,446.927Z" transform="translate(-182.627 -187.55)" fill="#eea886"/>
      <path id="Path_828" data-name="Path 828" d="M420.049,445.962H418.6v-6.115c-1.206.1-5.266,3.942-6.522,5.054s-2.978,1.061-8.268,1.4-5.788-2.831-4.951-3.908,3.543-1.549,4.951-2.221,6.964-6.94,8.447-8.422,2.384-5.729,2.384-5.729l6.182.538a37.948,37.948,0,0,0,.665,7.141v0a.139.139,0,0,1,.007.025q.089.418.2.815C422.61,437.927,420.049,445.962,420.049,445.962Z" transform="translate(-163.1 -187.883)" fill="#eea886"/>
      <path id="Path_829" data-name="Path 829" d="M409.451,357.5a61.625,61.625,0,0,0-2.543,6.922c-.206,1.4-5.676,14.619-7.259,23.533-.947,5.337-3.562,22.044-3.773,24.168-.363,3.634-2.074,11.66-2.339,15.372-.147,2.074-10.37,33.936-12.844,50.573,0,0,5.879.871,10.3-.3a174.276,174.276,0,0,0,13.959-41.578c3-14.687,5.656-22.518,7.981-28.567s15.495-23.181,16.87-25.106,9.986-12.561,1.831-24.082S409.451,357.5,409.451,357.5Z" transform="translate(-175.364 -238.029)" fill="#1d3b54"/>
      <path id="Path_830" data-name="Path 830" d="M425.217,407.544c-.746,4.959.037,11.477,1.6,29.616s-2.728,40.1-2.728,40.1c-5.383,1.843-11.584,0-11.584,0,.142-1.276,0-44.21,0-48.037s-1.1-8.168-1.382-12.559c-.194-2.993-1.584-8.511-3.152-14.143-.469-1.687-.953-3.385-1.426-5.027v0c-.267-.921-.525-1.826-.778-2.7-2.207-7.65-5.173-37.2-5.173-37.2s16.445-13.247,24.451-.776,3.9,21.537,3.614,23.1S425.963,402.585,425.217,407.544Z" transform="translate(-161.688 -239.126)" fill="#1d3b54"/>
      <path id="Path_831" data-name="Path 831" d="M415.972,368.908c-.128.284-8.322,18.471-10.43,21.625-.469-1.687-.953-3.385-1.426-5.027v0S415.7,369.31,415.972,368.908Z" transform="translate(-159.263 -227.138)" fill="#122536"/>
      <path id="Path_832" data-name="Path 832" d="M420.049,443.309H418.6v-6.115c-1.206.1-5.266,3.942-6.522,5.054s-2.978,1.061-8.268,1.4-5.788-2.831-4.951-3.908,3.543-1.549,4.951-2.221c5.659.3,12.564-7.654,15.88-7.637,1.762.008,1.745.984,1.8,1.168v0a.142.142,0,0,1,.007.025q.089.418.2.815C422.61,435.273,420.049,443.309,420.049,443.309Z" transform="translate(-163.1 -185.23)" fill="#172f42"/>
      <path id="Path_833" data-name="Path 833" d="M395.568,443.619h-1.74s.58-6.571-1.031-6.635-5.6,5.346-7.986,6.184-14.619,1.544-14.685-.71,4.7-3.155,6.182-3.8c5.049-.012,13.256-5.568,15.8-6.694a9.185,9.185,0,0,1,5.3-.451,25.77,25.77,0,0,1,.282,2.7C397.757,436.664,395.568,443.619,395.568,443.619Z" transform="translate(-182.627 -184.243)" fill="#172f42"/>
      <path id="Path_834" data-name="Path 834" d="M406.341,316.547s2.624,6.942.584,12.309c0,0,9.621-.626,9.986-1.75s-.386-11.525.938-14.6S406.341,316.547,406.341,316.547Z" transform="translate(-157.735 -266.436)" fill="#eea886"/>
      <path id="Path_835" data-name="Path 835" d="M412.221,320.827s-5.686,2.021-8.254,2.583-7.944,3.108-7.509,12.692a200.073,200.073,0,0,0,2.624,22.018c.584,4.117.218,14.6-.729,19.7a72.084,72.084,0,0,0,29.667,0s-2.843-8.687-2.771-10.934,9.476-20.744,9.913-23.663,2.334-15.8-1.967-18.649-7.8-2.472-9.621-3.744S414.881,319.912,412.221,320.827Z" transform="translate(-164.545 -260.755)" fill="#285173"/>
      <path id="Path_836" data-name="Path 836" d="M435.828,389.252c-23.289,6.179-41.821.025-41.821.025a57.748,57.748,0,0,0,3.834-10.3s0,0,0,0a61.869,61.869,0,0,0,1.434-6.908h0a62.552,62.552,0,0,0-.575-22.4c2.688-22.123,36.163-28.725,38.845-21.713s-5.2,37.15-5.594,39.734S435.828,389.252,435.828,389.252Z" transform="translate(-166.213 -257.127)" fill="#285173"/>
      <path id="Path_837" data-name="Path 837" d="M418.509,298.384c-3.867-1.326-14.324-2.739-17,13.31s3.155,16.325,9.149,15.868,15.368-11.288,16.086-14.582S429.546,302.171,418.509,298.384Z" transform="translate(-161.517 -276.128)" fill="#eea886"/>
      <path id="Path_838" data-name="Path 838" d="M402.512,305.07s3.194,6.832,7.382,9.213c0,0,2.624,7.261,8.309,10.2,0,0,15.082-9.991,6.329-21.863S403.5,300.2,402.512,305.07Z" transform="translate(-160.367 -276.649)" fill="#fccca2"/>
      <path id="Path_839" data-name="Path 839" d="M407.02,306.265c.339-.835,2.6-2.193,3.613.1s-2.625,6.326-3.623,6.108S405.733,309.433,407.02,306.265Z" transform="translate(-157.862 -270.999)" fill="#eea886"/>
      <path id="Path_840" data-name="Path 840" d="M417.67,302c.329-.515,10.317-5.136,12.4,4.524s-8.045,20.894-9.817,25.725.8,16.151.8,16.151-6.088-5.757-7.931-11.781C411.094,330,410.414,313.315,417.67,302Z" transform="translate(-154.014 -274.197)" fill="#fccca2"/>
      <path id="Path_841" data-name="Path 841" d="M417.019,301.183a10.075,10.075,0,0,0-3.451,6.235s-.575-2.977.66-4.8A2.755,2.755,0,0,1,417.019,301.183Z" transform="translate(-152.859 -273.712)" fill="#e54242"/>
      <path id="Path_842" data-name="Path 842" d="M396.28,370.331a61.876,61.876,0,0,0,1.434-6.908h0s1.534-3.267,2.052-4.824,4.374-20.739,4.374-20.739S408.218,355.871,396.28,370.331Z" transform="translate(-164.65 -248.479)" fill="#1d3b54"/>
      <path id="Path_843" data-name="Path 843" d="M392.3,357.764s-3,2.983-3.974,3.282-2.843-1.353-9.738-1.865c-.6-.044-1.669.5-1.419,1.3s3.252,2.977,4.536,3.309,7.345,2.739,10.3,1.557,4.963-4.941,4.963-4.941Z" transform="translate(-177.812 -234.798)" fill="#eea886"/>
      <path id="Path_844" data-name="Path 844" d="M411.26,322.333s-7.974,3.16-8.447,14.243-.9,16.87-1.338,18.581-1.26,8.587-3.267,12.724c-1.947,4.014-14.725,16.717-14.725,16.717l6.184,5.815s17.815-17.876,18.9-21.143,5.536-26.012,5.891-29.846C414.74,336.333,418.815,322.563,411.26,322.333Z" transform="translate(-173.446 -259.152)" fill="#285173"/>
      <circle id="Ellipse_79" data-name="Ellipse 79" cx="78.438" cy="78.438" r="78.438" transform="translate(10.225 10.219)" fill="#b8b8b8" opacity="0.1"/>
      <path id="Path_845" data-name="Path 845" d="M391.608,312.8s-96.167-11.918-115.329,89.575h0A74.111,74.111,0,0,1,391.608,312.8Z" transform="translate(-253.074 -278.961)" fill="#869ac2" opacity="0.3"/>
      <path id="Path_846" data-name="Path 846" d="M347.666,284.889a88.66,88.66,0,1,0,88.66,88.657A88.658,88.658,0,0,0,347.666,284.889Zm0,162.882a74.223,74.223,0,1,1,74.223-74.225A74.221,74.221,0,0,1,347.666,447.771Z" transform="translate(-259.006 -284.889)" fill="#3f444f"/>
    </g>
    <g id="Group_807" data-name="Group 807" transform="translate(186.126 264.069)">
      <rect id="Rectangle_333" data-name="Rectangle 333" width="51.404" height="5.263" fill="#e0e0e0"/>
    </g>
    <g id="Group_808" data-name="Group 808" transform="translate(247.529 264.069)">
      <rect id="Rectangle_334" data-name="Rectangle 334" width="36.492" height="5.263" transform="translate(0)" fill="#e0e0e0"/>
    </g>
    <g id="Group_809" data-name="Group 809" transform="translate(247.529 283.886)">
      <rect id="Rectangle_335" data-name="Rectangle 335" width="34.074" height="5.263" transform="translate(0)" fill="#e0e0e0"/>
    </g>
    <g id="Group_810" data-name="Group 810" transform="translate(430.323 264.069)">
      <rect id="Rectangle_336" data-name="Rectangle 336" width="36.491" height="5.263" fill="#78c2ff"/>
    </g>
    <g id="Group_811" data-name="Group 811" transform="translate(293.845 264.069)">
      <rect id="Rectangle_337" data-name="Rectangle 337" width="46.492" height="5.263" transform="translate(0)" fill="#1487e3"/>
    </g>
    <g id="Group_812" data-name="Group 812" transform="translate(374.723 264.069)">
      <rect id="Rectangle_338" data-name="Rectangle 338" width="46.492" height="5.263" fill="#ffc055"/>
    </g>
    <g id="Group_813" data-name="Group 813" transform="translate(348.934 264.069)">
      <rect id="Rectangle_339" data-name="Rectangle 339" width="17.017" height="5.263" fill="#e0e0e0"/>
    </g>
    <g id="Group_814" data-name="Group 814" transform="translate(186.126 283.886)">
      <rect id="Rectangle_340" data-name="Rectangle 340" width="26.623" height="5.263" fill="#78c2ff"/>
    </g>
    <g id="Group_815" data-name="Group 815" transform="translate(219.284 283.886)">
      <rect id="Rectangle_341" data-name="Rectangle 341" width="8.597" height="5.263" fill="#1487e3"/>
    </g>
    <g id="Group_816" data-name="Group 816" transform="translate(395.761 283.886)">
      <rect id="Rectangle_342" data-name="Rectangle 342" width="71.053" height="5.263" fill="#e0e0e0"/>
    </g>
    <g id="Group_817" data-name="Group 817" transform="translate(234.197 283.886)">
      <rect id="Rectangle_343" data-name="Rectangle 343" width="8.771" height="5.263" fill="#ffc455"/>
    </g>
    <g id="Group_818" data-name="Group 818" transform="translate(365.951 283.886)">
      <rect id="Rectangle_344" data-name="Rectangle 344" width="23.245" height="5.263" fill="#1487e3"/>
    </g>
    <g id="Group_819" data-name="Group 819" transform="translate(310.337 283.886)">
      <rect id="Rectangle_345" data-name="Rectangle 345" width="49.461" height="5.263" fill="#78c2ff"/>
    </g>
    <g id="Group_820" data-name="Group 820" transform="translate(286.301 283.886)">
      <rect id="Rectangle_346" data-name="Rectangle 346" width="17.017" height="5.263" fill="#e0e0e0"/>
    </g>
    <g id="Group_875" data-name="Group 875" transform="translate(426.685 89.67)">
      <g id="Group_823" data-name="Group 823" transform="translate(53.015)">
        <g id="Group_822" data-name="Group 822">
          <g id="Group_821" data-name="Group 821">
            <path id="Path_847" data-name="Path 847" d="M318.247,79.87s-8.055,3.94-6.064,14.66,2.874,12.162.646,16.35-4.858,22.057-2.852,25.444,24.819-14.882,27.981-30.21-2-22.145-3.832-24.684S325.359,76.263,318.247,79.87Z" transform="translate(-309.263 -78.102)" fill="#16202e"/>
          </g>
        </g>
      </g>
      <g id="Group_826" data-name="Group 826" transform="translate(63.783 173.424)">
        <g id="Group_825" data-name="Group 825">
          <g id="Group_824" data-name="Group 824">
            <path id="Path_848" data-name="Path 848" d="M315.644,185.687l1.269,1.529,5.1-4.73-1.136-1.6Z" transform="translate(-315.644 -180.881)" fill="#eea987"/>
          </g>
        </g>
      </g>
      <g id="Group_829" data-name="Group 829" transform="translate(57.321 175.029)">
        <g id="Group_828" data-name="Group 828">
          <g id="Group_827" data-name="Group 827">
            <path id="Path_849" data-name="Path 849" d="M319.545,186.562s-1.328,8.072-2.372,9.12-6.382,6.648-5.184,8.141,12.868-6.694,14.536-9.626,5.074-3.449,5.605-6.409-7.483-5.956-7.483-5.956Z" transform="translate(-311.815 -181.832)" fill="#3f444f"/>
          </g>
        </g>
      </g>
      <g id="Group_832" data-name="Group 832" transform="translate(27.75 100.578)">
        <g id="Group_831" data-name="Group 831">
          <g id="Group_830" data-name="Group 830">
            <path id="Path_850" data-name="Path 850" d="M326.973,139.481s-32.5,32.87-32.682,37.058,35.335,38.678,35.691,39.924l6.216-5.907s-15.8-22.432-20.608-27.244a96.134,96.134,0,0,0-7.487-6.862s38.669-14.481,41.521-18.4,5.889-10.828,2.681-17.111S326.973,139.481,326.973,139.481Z" transform="translate(-294.29 -137.709)" fill="#dbdff0"/>
          </g>
        </g>
      </g>
      <g id="Group_835" data-name="Group 835" transform="translate(0.911 97.85)">
        <g id="Group_834" data-name="Group 834">
          <g id="Group_833" data-name="Group 833">
            <path id="Path_851" data-name="Path 851" d="M335.92,161.788H293.238a80.076,80.076,0,0,1,2.715,12.2c.839,6.211,3.206,39.476,3.206,39.476L290.7,215.88c1.068-3.741-11.555-54.409-12.119-56.72-1.6-6.645,7.019-7.711,16.148-12.436,9.431-4.868,32.687-10.63,32.687-10.63C360.921,135.992,335.92,161.788,335.92,161.788Z" transform="translate(-278.383 -136.093)" fill="#dbdff0"/>
          </g>
        </g>
      </g>
      <g id="Group_838" data-name="Group 838" transform="translate(14.431 175.454)">
        <g id="Group_837" data-name="Group 837">
          <g id="Group_836" data-name="Group 836">
            <path id="Path_852" data-name="Path 852" d="M286.4,183.927l.088,2.035,6.684-1.934-.3-1.944Z" transform="translate(-286.396 -182.084)" fill="#eea987"/>
          </g>
        </g>
      </g>
      <g id="Group_841" data-name="Group 841" transform="translate(0 177.399)">
        <g id="Group_840" data-name="Group 840">
          <g id="Group_839" data-name="Group 839">
            <path id="Path_853" data-name="Path 853" d="M292.362,185.169s-4.812,6.616-6.216,7.084-8.688,3.074-8.287,4.947,14.5-.2,17.311-2.074,6.081-.8,7.887-3.206-4.009-8.683-4.009-8.683Z" transform="translate(-277.844 -183.237)" fill="#3f444f"/>
          </g>
        </g>
      </g>
      <g id="Group_844" data-name="Group 844" transform="translate(25.949 38.733)">
        <g id="Group_843" data-name="Group 843">
          <g id="Group_842" data-name="Group 842">
            <path id="Path_854" data-name="Path 854" d="M330.413,101.582a15.216,15.216,0,0,0-9.253,10.143c-1.139,3.81-6.35,22.19-7.821,23.66s-20.117,12.632-20.117,12.632l2.205,3.943s23.125-10.694,23.927-11.763,9.21-20.52,9.918-23.393S336.526,97.988,330.413,101.582Z" transform="translate(-293.222 -101.057)" fill="#eea987"/>
          </g>
        </g>
      </g>
      <g id="Group_847" data-name="Group 847" transform="translate(55.931 2.615)">
        <g id="Group_846" data-name="Group 846">
          <g id="Group_845" data-name="Group 845">
            <path id="Path_855" data-name="Path 855" d="M318.227,79.993s-11.7,3.677-5.347,23.863,22.324-2.34,20.653-14.638S318.227,79.993,318.227,79.993Z" transform="translate(-310.991 -79.652)" fill="#eea987"/>
          </g>
        </g>
      </g>
      <g id="Group_850" data-name="Group 850" transform="translate(49.94 37.037)">
        <g id="Group_849" data-name="Group 849">
          <g id="Group_848" data-name="Group 848">
            <path id="Path_856" data-name="Path 856" d="M333.24,100.052s12.3,5.146,15.372,11.428-3.14,17.645-4.478,21.588-3.81,12.9-3.275,17.378,2.14,13.568,2.406,16.374c0,0-25.732,2.14-35.824-5.948,0,0,6.684-5.146,7.219-11.16a42.031,42.031,0,0,0-1.471-14.035c-.4-.8-6.015-5.747-4.612-10.494s3.542-16.371,6.873-19.594a25.051,25.051,0,0,1,7.429-4.735Z" transform="translate(-307.44 -100.052)" fill="#1a598c"/>
          </g>
        </g>
      </g>
      <g id="Group_853" data-name="Group 853" transform="translate(80.747 43.753)">
        <g id="Group_852" data-name="Group 852">
          <g id="Group_851" data-name="Group 851">
            <path id="Path_857" data-name="Path 857" d="M328.11,105.2c-1.166,1.141-4.478,4.277-.535,13.033s11.363,20.319,11.563,21.922,11.14,34.279,11.407,34.948,4.755.159,4.755.159-6.537-32.47-7.207-36.194C348.095,139.07,337,96.513,328.11,105.2Z" transform="translate(-325.698 -104.032)" fill="#eea987"/>
          </g>
        </g>
      </g>
      <g id="Group_856" data-name="Group 856" transform="translate(102.897 113.502)">
        <g id="Group_855" data-name="Group 855">
          <g id="Group_854" data-name="Group 854">
            <path id="Path_858" data-name="Path 858" d="M346.067,146.692s4.234,3.208,5.079,3.341,8.778,1.917,9.535,1.6,1.692,1.694-.8,1.561-11.763-.044-14.258-.267-5.258,4.1-6.193,4.053-.8-1.293.535-3.653,2.619-3.665,1.559-6.64S346.067,146.692,346.067,146.692Z" transform="translate(-338.825 -145.369)" fill="#eea987"/>
          </g>
        </g>
      </g>
      <g id="Group_859" data-name="Group 859" transform="translate(16.513 82.627)">
        <g id="Group_858" data-name="Group 858">
          <g id="Group_857" data-name="Group 857">
            <path id="Path_859" data-name="Path 859" d="M297.064,130.137s-2.875.467-4.144-.533a30.833,30.833,0,0,0-5.29-2.533l5.691,10.085s5.347-2,5.948-3.074S297.064,130.137,297.064,130.137Z" transform="translate(-287.63 -127.071)" fill="#eea987"/>
          </g>
        </g>
      </g>
      <g id="Group_862" data-name="Group 862" transform="translate(11.763 76.593)">
        <g id="Group_861" data-name="Group 861" transform="translate(0 0)">
          <g id="Group_860" data-name="Group 860">
            <rect id="Rectangle_347" data-name="Rectangle 347" width="1.605" height="19.182" transform="translate(0 0.803) rotate(-30.014)" fill="#434343"/>
          </g>
        </g>
      </g>
      <g id="Group_865" data-name="Group 865" transform="translate(16.046 84.98)">
        <g id="Group_864" data-name="Group 864">
          <g id="Group_863" data-name="Group 863">
            <path id="Path_860" data-name="Path 860" d="M287.464,128.465s-1.244,6.712,4.574,7.922Z" transform="translate(-287.353 -128.465)" fill="#eea987"/>
          </g>
        </g>
      </g>
      <g id="Group_868" data-name="Group 868" transform="translate(63.906 24.103)">
        <g id="Group_867" data-name="Group 867">
          <g id="Group_866" data-name="Group 866">
            <path id="Path_861" data-name="Path 861" d="M327.549,105.326c.086,4.522-5.3,12-9.692,10.313s-.665-9.52-.665-9.52l1.358-.5a4.472,4.472,0,0,0-.246-.94,11.53,11.53,0,0,0-.766-1.546s11.266-14.948,9.879-9.577C326.046,98.927,327.549,105.326,327.549,105.326Z" transform="translate(-315.717 -92.387)" fill="#eea987"/>
          </g>
        </g>
      </g>
      <g id="Group_871" data-name="Group 871" transform="translate(55.804 0.997)">
        <g id="Group_870" data-name="Group 870">
          <g id="Group_869" data-name="Group 869">
            <path id="Path_862" data-name="Path 862" d="M311.737,92.432a26.386,26.386,0,0,0,15.537,6.417s3.29,3.894,3.579,5.614c0,0,9.124-14.3-1.544-23.169S307.815,88.778,311.737,92.432Z" transform="translate(-310.915 -78.693)" fill="#16202e"/>
          </g>
        </g>
      </g>
      <g id="Group_874" data-name="Group 874" transform="translate(72.163 16.622)">
        <g id="Group_873" data-name="Group 873">
          <g id="Group_872" data-name="Group 872">
            <path id="Path_863" data-name="Path 863" d="M320.623,91.992c.074-1.468.98-4.812,3.164-3.876s-.133,7.743-1.583,7.325C322.206,95.441,320.446,95.468,320.623,91.992Z" transform="translate(-320.611 -87.954)" fill="#eea987"/>
          </g>
        </g>
      </g>
      <path id="Path_864" data-name="Path 864" d="M324,95.646s-1.647,5.648-6.441,6.788a11.533,11.533,0,0,0-.766-1.546S319.931,100.875,324,95.646Z" transform="translate(-251.069 -66.044)" fill="#a1725b"/>
      <path id="Path_865" data-name="Path 865" d="M318.536,142.119,303.89,157.646H298.5Z" transform="translate(-263.643 -34.1)" fill="#b5b9c7"/>
    </g>
  </g>
</svg>
