<svg id="Group_529" data-name="Group 529" xmlns="http://www.w3.org/2000/svg" width="74.297" height="74.297" viewBox="0 0 74.297 74.297">
  <g id="google-analytics">
    <path id="Path_663" data-name="Path 663" d="M74.3,37.149a37.156,37.156,0,1,1-6.512-21.015A36.969,36.969,0,0,1,74.3,37.149Z" fill="#02a6e9"/>
  </g>
  <g id="email_1_" data-name="email (1)" transform="translate(21.477 25.249)">
    <g id="Group_6" data-name="Group 6" transform="translate(0 0)">
      <g id="Group_5" data-name="Group 5">
        <path id="Path_2" data-name="Path 2" d="M29.539,59.733H1.555A1.555,1.555,0,0,0,0,61.288V82.017a1.555,1.555,0,0,0,1.555,1.555H29.539a1.555,1.555,0,0,0,1.555-1.555V61.288A1.555,1.555,0,0,0,29.539,59.733Zm.518,22.284a.518.518,0,0,1-.518.518H1.555a.518.518,0,0,1-.518-.518V61.288a.518.518,0,0,1,.518-.518H29.539a.518.518,0,0,1,.518.518Z" transform="translate(0 -59.733)" fill="#fff" stroke="#fff" stroke-width="2"/>
        <path id="Path_3" data-name="Path 3" d="M60.608,93.867a.518.518,0,0,0-.378.119L48.274,104.03a1.037,1.037,0,0,1-1.334,0L34.984,93.986a.518.518,0,0,0-.666.794l11.956,10.043a2.07,2.07,0,0,0,2.667,0L60.9,94.78a.518.518,0,0,0-.288-.913Z" transform="translate(-32.06 -91.792)" fill="#fff" stroke="#fff" stroke-width="2"/>
        <path id="Path_4" data-name="Path 4" d="M41.9,272.937a.518.518,0,0,0-.5.161l-7.255,7.774a.518.518,0,1,0,.758.707l7.255-7.774a.518.518,0,0,0-.258-.868Z" transform="translate(-31.935 -259.978)" fill="#fff" stroke="#fff" stroke-width="2"/>
        <path id="Path_5" data-name="Path 5" d="M342.106,273.1a.518.518,0,1,0-.758.707l7.255,7.774a.518.518,0,0,0,.758-.707Z" transform="translate(-320.48 -259.978)" fill="#fff" stroke="#fff" stroke-width="2"/>
      </g>
    </g>
  </g>
</svg>
