<svg xmlns="http://www.w3.org/2000/svg" width="69.344" height="48.239" viewBox="0 0 69.344 48.239">
  <g id="graphic-monitoring-with-magnifying-glass" transform="translate(0 -38.074)">
    <g id="Group_526" data-name="Group 526" transform="translate(0 38.074)">
      <path id="Path_667" data-name="Path 667" d="M1.507,86.313H67.836a1.508,1.508,0,0,0,1.507-1.507V39.581a1.508,1.508,0,0,0-1.507-1.507H1.507A1.508,1.508,0,0,0,0,39.581V84.806A1.508,1.508,0,0,0,1.507,86.313ZM66.329,83.3H3.015V63.7h6.03a1.506,1.506,0,0,0,1.042-.418l3.526-3.369,3.167,3.321a1.505,1.505,0,0,0,1.091.467h7.756a1.506,1.506,0,0,0,1.093-.469l3.114-3.276,3.491,3.328a1.515,1.515,0,0,0,1.04.415h2.851A11.658,11.658,0,0,0,55.1,70.308l6.707,6.707a1.507,1.507,0,1,0,2.131-2.132l-6.6-6.6a11.727,11.727,0,0,0,1.917-3.078h7.067V83.3Zm-9.31-21.1h-.241l-7.014-7.258a1.508,1.508,0,0,0-2.129-.039L41.6,60.686h-1.78a8.668,8.668,0,1,1,17.2,1.507Zm-2.879,5.02c-.024.024-.033.057-.056.083a8.645,8.645,0,0,1-13.709-3.6h1.834a1.5,1.5,0,0,0,1.043-.421l5.386-5.171,6.414,6.637a1.478,1.478,0,0,0,.846.412,8.719,8.719,0,0,1-1.627,1.964C54.23,67.159,54.179,67.174,54.14,67.213ZM3.015,41.089H66.329v21.1H60.064a11.552,11.552,0,0,0,.109-1.507,11.683,11.683,0,0,0-23.366,0H34.969L30.82,56.732a1.487,1.487,0,0,0-1.078-.415,1.5,1.5,0,0,0-1.055.469l-3.707,3.9H18.515l-3.763-3.945a1.508,1.508,0,0,0-1.057-.467,1.441,1.441,0,0,0-1.076.418L8.441,60.686H3.015Z" transform="translate(0 -38.074)" fill="#484848"/>
      <path id="Path_668" data-name="Path 668" d="M37.422,179.489h-19.6a1.507,1.507,0,0,0,0,3.015h19.6a1.507,1.507,0,0,0,0-3.015Z" transform="translate(-11.795 -140.295)" fill="#484848"/>
      <path id="Path_669" data-name="Path 669" d="M109.372,179.489h-4.522a1.507,1.507,0,0,0,0,3.015h4.522a1.507,1.507,0,1,0,0-3.015Z" transform="translate(-74.7 -140.295)" fill="#484848"/>
    </g>
  </g>
</svg>
