<svg id="Group_528" data-name="Group 528" xmlns="http://www.w3.org/2000/svg" width="74.297" height="74.297" viewBox="0 0 74.297 74.297">
  <g id="google-analytics">
    <path id="Path_663" data-name="Path 663" d="M74.3,37.149a37.156,37.156,0,1,1-6.512-21.015A36.969,36.969,0,0,1,74.3,37.149Z" fill="#2a87b5"/>
  </g>
  <g id="search-engine" transform="translate(15.962 15.962)">
    <path id="Path_671" data-name="Path 671" d="M361.327,68.565l-2.022-2.022-2.022,2.022-.939-.939,2.961-2.961,2.961,2.961Zm0,0" transform="translate(-326.75 -59.294)" fill="#fff"/>
    <path id="Path_672" data-name="Path 672" d="M384,79.977h1.329v7.308H384Zm0,0" transform="translate(-352.109 -73.335)" fill="#fff"/>
    <path id="Path_673" data-name="Path 673" d="M35.877,22.587H34.548V19.73a9.966,9.966,0,1,0-3.986,0v2.857H29.233v18.6H26.575V19.93H19.931V41.19H17.273V25.245H10.629V41.19H7.972v-9.3H1.328v9.3H0v1.329H42.52V41.19H35.876ZM6.643,41.19H2.657V33.217H6.643Zm9.3,0H11.958V26.574h3.986Zm9.3,0H21.26V21.258h3.986ZM23.917,9.964a8.637,8.637,0,1,1,9.871,8.548l-.569.082v3.993H31.89V18.594l-.569-.082a8.678,8.678,0,0,1-7.4-8.549ZM34.548,41.19H30.561V23.916h3.986Zm0,0" transform="translate(0.001 0)" fill="#fff"/>
    <path id="Path_674" data-name="Path 674" d="M318.617,39.285a7.308,7.308,0,1,0-7.308,7.308A7.308,7.308,0,0,0,318.617,39.285Zm-13.288,0a5.98,5.98,0,1,1,5.98,5.98A5.979,5.979,0,0,1,305.329,39.285Zm0,0" transform="translate(-278.753 -29.321)" fill="#fff"/>
    <path id="Path_675" data-name="Path 675" d="M11.914,183.95H16.58l5.7-5.7v1.718h1.329v-3.986H19.627v1.329h1.718l-5.315,5.315H11.395L2.566,190.77l.9.976Zm0,0" transform="translate(-2.353 -161.362)" fill="#fff"/>
    <path id="Path_676" data-name="Path 676" d="M464,271.977h3.986v1.329H464Zm0,0" transform="translate(-425.465 -249.39)" fill="#fff"/>
    <path id="Path_677" data-name="Path 677" d="M464,303.977h3.986v1.329H464Zm0,0" transform="translate(-425.465 -278.732)" fill="#fff"/>
    <path id="Path_678" data-name="Path 678" d="M464,335.977h3.986v1.329H464Zm0,0" transform="translate(-425.465 -308.074)" fill="#fff"/>
    <path id="Path_679" data-name="Path 679" d="M464,367.977h3.986v1.329H464Zm0,0" transform="translate(-425.465 -337.417)" fill="#fff"/>
    <path id="Path_680" data-name="Path 680" d="M464,399.977h3.986v1.329H464Zm0,0" transform="translate(-425.465 -366.759)" fill="#fff"/>
    <path id="Path_681" data-name="Path 681" d="M464,431.977h3.986v1.329H464Zm0,0" transform="translate(-425.465 -396.102)" fill="#fff"/>
    <path id="Path_682" data-name="Path 682" d="M464,463.977h3.986v1.329H464Zm0,0" transform="translate(-425.465 -425.444)" fill="#fff"/>
  </g>
</svg>
