<svg id="_050---Male-User-Account-Warning" data-name="050---Male-User-Account-Warning" xmlns="http://www.w3.org/2000/svg" width="82.247" height="82.209" viewBox="0 0 82.247 82.209">
  <path id="Shape" d="M1.37,82.209H77.887a4.65,4.65,0,0,0,3.719-7L62.635,40.644a4.172,4.172,0,0,0-7.437,0L44.256,60.592a4.065,4.065,0,0,1-1.781-3.375v-2.74A3.973,3.973,0,0,1,43.8,51.463,15.238,15.238,0,0,0,49.31,39.735a5.481,5.481,0,0,0,5.509-5.481v-4.11a5.457,5.457,0,0,0-1.854-4.11c1.422-6.205-.17-13.269-6.152-15.6C44.487,3.184,36.757,0,29.047,0,16.177,0,9.842,13.084,13.193,25.718a5.45,5.45,0,0,0-2.246,4.426v4.11a5.481,5.481,0,0,0,5.509,5.481,15.233,15.233,0,0,0,5.511,11.719,3.973,3.973,0,0,1,1.325,3.024v2.74a4.072,4.072,0,0,1-2.654,3.843L7.28,66.158A11.372,11.372,0,0,0,0,76.729v4.11a1.37,1.37,0,0,0,1.37,1.37ZM57.6,41.964a1.436,1.436,0,0,1,2.631,0L79.2,76.53c.685,1.247-.062,2.939-1.315,2.939H39.945c-1.247,0-2.007-1.678-1.315-2.939ZM2.74,76.729a8.617,8.617,0,0,1,5.516-8.01l13.355-5.094a6.882,6.882,0,0,0,4.421-6.407v-2.74a6.664,6.664,0,0,0-2.3-5.118A12.693,12.693,0,0,1,19.182,38.9a1.781,1.781,0,0,0-.349-1.463c-.492-.533-.908-.441-2.4-.441a2.74,2.74,0,0,1-2.74-2.74v-4.11a2.728,2.728,0,0,1,2.74-2.74,1.37,1.37,0,0,0,0-2.74,5.279,5.279,0,0,0-.645.066C13.053,13.88,18.063,2.74,29.047,2.74c6.63,0,13.784,2.721,15.3,9.086.214.9,1.021.995,1.469,1.166,4.485,1.736,5.466,6.988,4.58,11.8a4.072,4.072,0,0,0-1.058-.137,1.37,1.37,0,0,0,0,2.74,2.74,2.74,0,0,1,2.74,2.74v4.11a2.74,2.74,0,0,1-2.74,2.74c-1.391,0-1.891-.115-2.4.441a1.792,1.792,0,0,0-.349,1.469,12.7,12.7,0,0,1-4.557,10.464,6.66,6.66,0,0,0-2.294,5.115v2.74a6.88,6.88,0,0,0,3.2,5.777L36.227,75.212a4.933,4.933,0,0,0-.219,4.257H2.74Z" transform="translate(0 0)" fill="#a4a4a4"/>
  <path id="Shape-2" data-name="Shape" d="M44.11,58.221A4.11,4.11,0,1,0,40,54.11,4.11,4.11,0,0,0,44.11,58.221Zm0-5.481a1.37,1.37,0,1,1-1.37,1.37A1.37,1.37,0,0,1,44.11,52.74Z" transform="translate(14.806 18.508)" fill="#a4a4a4"/>
  <path id="Shape-3" data-name="Shape" d="M45.426,51.453c.655-2.259,2.8-9.758,2.8-11.342a4.11,4.11,0,1,0-8.221,0c0,1.584,2.14,9.083,2.8,11.342a1.37,1.37,0,0,0,2.631,0ZM44.11,38.74a1.37,1.37,0,0,1,1.37,1.37,49.715,49.715,0,0,1-1.37,5.874,49.716,49.716,0,0,1-1.37-5.874A1.37,1.37,0,0,1,44.11,38.74Z" transform="translate(14.806 13.326)" fill="#a4a4a4"/>
</svg>
