<svg id="delete-button" xmlns="http://www.w3.org/2000/svg" width="49.464" height="61.169" viewBox="0 0 49.464 61.169">
  <g id="Group_355" data-name="Group 355" transform="translate(0)">
    <path id="Path_580" data-name="Path 580" d="M88.632,7.329H79.11a8.277,8.277,0,0,0-16.446,0H53.143a7,7,0,0,0-6.988,6.988v.359a7,7,0,0,0,4.416,6.492V54.18a7,7,0,0,0,6.988,6.988H84.215A7,7,0,0,0,91.2,54.18V21.167a7,7,0,0,0,4.416-6.492v-.359A7,7,0,0,0,88.632,7.329ZM70.887,3.314a4.974,4.974,0,0,1,4.874,4.014H66.014A4.974,4.974,0,0,1,70.887,3.314Zm17,50.866a3.678,3.678,0,0,1-3.674,3.674H57.559a3.679,3.679,0,0,1-3.674-3.674V21.664h34Zm4.416-39.5a3.678,3.678,0,0,1-3.674,3.674H53.143a3.678,3.678,0,0,1-3.674-3.674v-.359a3.678,3.678,0,0,1,3.674-3.674H88.632a3.678,3.678,0,0,1,3.674,3.674v.359Z" transform="translate(-46.155)" fill="#fff"/>
    <path id="Path_581" data-name="Path 581" d="M159.732,271.543a1.657,1.657,0,0,0,1.657-1.657V251.228a1.657,1.657,0,1,0-3.314,0v18.658A1.657,1.657,0,0,0,159.732,271.543Z" transform="translate(-143.884 -217.927)" fill="#fff"/>
    <path id="Path_582" data-name="Path 582" d="M229.8,271.543a1.657,1.657,0,0,0,1.657-1.657V251.228a1.657,1.657,0,1,0-3.314,0v18.658A1.657,1.657,0,0,0,229.8,271.543Z" transform="translate(-205.07 -217.927)" fill="#fff"/>
    <path id="Path_583" data-name="Path 583" d="M299.871,271.543a1.657,1.657,0,0,0,1.657-1.657V251.228a1.657,1.657,0,1,0-3.314,0v18.658A1.657,1.657,0,0,0,299.871,271.543Z" transform="translate(-266.255 -217.927)" fill="#fff"/>
  </g>
</svg>
