<svg xmlns="http://www.w3.org/2000/svg" width="46.195" height="52.794" viewBox="0 0 46.195 52.794">
  <g id="password" transform="translate(-32)">
    <g id="Group_12" data-name="Group 12" transform="translate(32)">
      <g id="Group_11" data-name="Group 11">
        <g id="Path_6" data-name="Path 6" transform="translate(-32)" fill="#818181">
          <path d="M 69.94583892822266 52.2942008972168 L 40.24909591674805 52.2942008972168 C 35.97623443603516 52.2942008972168 32.50000381469727 48.81797409057617 32.50000381469727 44.54510116577148 L 32.50000381469727 27.63446235656738 C 32.50000381469727 23.36160278320313 35.97623443603516 19.88537216186523 40.24909591674805 19.88537216186523 L 42.72000503540039 19.88537216186523 L 43.22000503540039 19.88537216186523 L 43.22000503540039 19.38537216186523 L 43.22000503540039 12.11235237121582 C 43.22000503540039 5.709282398223877 48.5464973449707 0.500002384185791 55.09364700317383 0.500002384185791 C 61.64079666137695 0.500002384185791 66.96729278564453 5.709282398223877 66.96729278564453 12.11235237121582 L 66.96729278564453 19.38537216186523 L 66.96729278564453 19.88537216186523 L 67.46729278564453 19.88537216186523 L 69.94583892822266 19.88537216186523 C 74.21870422363281 19.88537216186523 77.69493865966797 23.36160278320313 77.69493865966797 27.63446235656738 L 77.69493865966797 35.2648811340332 C 77.69493865966797 36.12632369995117 76.99410247802734 36.82715225219727 76.13266754150391 36.82715225219727 C 75.27121734619141 36.82715225219727 74.57037353515625 36.12632369995117 74.57037353515625 35.2648811340332 L 74.57037353515625 27.63446235656738 C 74.57037353515625 25.08448219299316 72.49581909179688 23.00992202758789 69.94583892822266 23.00992202758789 L 40.24909591674805 23.00992202758789 C 37.69910430908203 23.00992202758789 35.62454605102539 25.08448219299316 35.62454605102539 27.63446235656738 L 35.62454605102539 44.54510116577148 C 35.62454605102539 47.0950927734375 37.69910430908203 49.16965103149414 40.24909591674805 49.16965103149414 L 69.94583892822266 49.16965103149414 C 72.49581909179688 49.16965103149414 74.57037353515625 47.0950927734375 74.57037353515625 44.54510116577148 C 74.57037353515625 43.68366241455078 75.27121734619141 42.98283386230469 76.13266754150391 42.98283386230469 C 76.99410247802734 42.98283386230469 77.69493865966797 43.68366241455078 77.69493865966797 44.54510116577148 C 77.69493865966797 48.81797409057617 74.21870422363281 52.2942008972168 69.94583892822266 52.2942008972168 Z M 55.09364700317383 3.624552249908447 C 50.26938629150391 3.624552249908447 46.34455490112305 7.432162284851074 46.34455490112305 12.11235237121582 L 46.34455490112305 19.38537216186523 L 46.34455490112305 19.88537216186523 L 46.84455490112305 19.88537216186523 L 63.34274673461914 19.88537216186523 L 63.84274673461914 19.88537216186523 L 63.84274673461914 19.38537216186523 L 63.84274673461914 12.11235237121582 C 63.84274673461914 7.432162284851074 59.91791534423828 3.624552249908447 55.09364700317383 3.624552249908447 Z" stroke="none"/>
          <path d="M 69.94583892822266 51.7942008972168 C 73.94300842285156 51.7942008972168 77.19493865966797 48.54227066040039 77.19493865966797 44.54510116577148 C 77.19493865966797 43.9593620300293 76.71840667724609 43.48283386230469 76.13266754150391 43.48283386230469 C 75.54691314697266 43.48283386230469 75.07037353515625 43.9593620300293 75.07037353515625 44.54510116577148 C 75.07037353515625 47.37079238891602 72.77151489257813 49.66965103149414 69.94583892822266 49.66965103149414 L 40.24909591674805 49.66965103149414 C 37.42340469360352 49.66965103149414 35.12454605102539 47.37079238891602 35.12454605102539 44.54510116577148 L 35.12454605102539 27.63446235656738 C 35.12454605102539 24.80878257751465 37.42340469360352 22.50992202758789 40.24909591674805 22.50992202758789 L 69.94583892822266 22.50992202758789 C 72.77151489257813 22.50992202758789 75.07037353515625 24.80878257751465 75.07037353515625 27.63446235656738 L 75.07037353515625 35.2648811340332 C 75.07037353515625 35.85062408447266 75.54691314697266 36.32715225219727 76.13266754150391 36.32715225219727 C 76.71840667724609 36.32715225219727 77.19493865966797 35.85062408447266 77.19493865966797 35.2648811340332 L 77.19493865966797 27.63446235656738 C 77.19493865966797 23.63730239868164 73.94300842285156 20.38537216186523 69.94583892822266 20.38537216186523 L 67.46729278564453 20.38537216186523 L 66.46729278564453 20.38537216186523 L 66.46729278564453 19.38537216186523 L 66.46729278564453 12.11235237121582 C 66.46729278564453 5.984982490539551 61.36509704589844 1.000002384185791 55.09364700317383 1.000002384185791 C 48.82219696044922 1.000002384185791 43.72000503540039 5.984982490539551 43.72000503540039 12.11235237121582 L 43.72000503540039 19.38537216186523 L 43.72000503540039 20.38537216186523 L 42.72000503540039 20.38537216186523 L 40.24909591674805 20.38537216186523 C 36.25193405151367 20.38537216186523 33.00000381469727 23.63730239868164 33.00000381469727 27.63446235656738 L 33.00000381469727 44.54510116577148 C 33.00000381469727 48.54227066040039 36.25193405151367 51.7942008972168 40.24909591674805 51.7942008972168 L 69.94583892822266 51.7942008972168 M 55.09364700317383 3.124552249908447 C 60.1936149597168 3.124552249908447 64.34274291992188 7.1564621925354 64.34274291992188 12.11235237121582 L 64.34274291992188 19.38537216186523 L 64.34274291992188 20.38537216186523 L 63.34274673461914 20.38537216186523 L 46.84455490112305 20.38537216186523 L 45.84455490112305 20.38537216186523 L 45.84455490112305 19.38537216186523 L 45.84455490112305 12.11235237121582 C 45.84455490112305 7.1564621925354 49.99367523193359 3.124552249908447 55.09364700317383 3.124552249908447 M 69.94583892822266 52.7942008972168 L 40.24909591674805 52.7942008972168 C 35.70054626464844 52.7942008972168 32.00000381469727 49.09366226196289 32.00000381469727 44.54510116577148 L 32.00000381469727 27.63446235656738 C 32.00000381469727 23.08591270446777 35.70054626464844 19.38537216186523 40.24909591674805 19.38537216186523 L 42.72000503540039 19.38537216186523 L 42.72000503540039 12.11235237121582 C 42.72000503540039 5.433572292327881 48.27082443237305 2.355957121835672e-06 55.09364700317383 2.355957121835672e-06 C 61.91648483276367 2.355957121835672e-06 67.46729278564453 5.433572292327881 67.46729278564453 12.11235237121582 L 67.46729278564453 19.38537216186523 L 69.94583892822266 19.38537216186523 C 74.49439239501953 19.38537216186523 78.19493865966797 23.08591270446777 78.19493865966797 27.63446235656738 L 78.19493865966797 35.2648811340332 C 78.19493865966797 36.40387344360352 77.27164459228516 37.32715225219727 76.13266754150391 37.32715225219727 C 74.99366760253906 37.32715225219727 74.07037353515625 36.40387344360352 74.07037353515625 35.2648811340332 L 74.07037353515625 27.63446235656738 C 74.07037353515625 25.36019325256348 72.22011566162109 23.50992202758789 69.94583892822266 23.50992202758789 L 40.24909591674805 23.50992202758789 C 37.97481536865234 23.50992202758789 36.12454605102539 25.36019325256348 36.12454605102539 27.63446235656738 L 36.12454605102539 44.54510116577148 C 36.12454605102539 46.81938171386719 37.97481536865234 48.66965103149414 40.24909591674805 48.66965103149414 L 69.94583892822266 48.66965103149414 C 72.22011566162109 48.66965103149414 74.07037353515625 46.81938171386719 74.07037353515625 44.54510116577148 C 74.07037353515625 43.40612411499023 74.99366760253906 42.48283386230469 76.13266754150391 42.48283386230469 C 77.27164459228516 42.48283386230469 78.19493865966797 43.40612411499023 78.19493865966797 44.54510116577148 C 78.19493865966797 49.09366226196289 74.49439239501953 52.7942008972168 69.94583892822266 52.7942008972168 Z M 55.09364700317383 4.124552249908447 C 50.54509735107422 4.124552249908447 46.84455490112305 7.707852363586426 46.84455490112305 12.11235237121582 L 46.84455490112305 19.38537216186523 L 63.34274673461914 19.38537216186523 L 63.34274673461914 12.11235237121582 C 63.34274673461914 7.707852363586426 59.64220428466797 4.124552249908447 55.09364700317383 4.124552249908447 Z" stroke="none" fill="#fdfdfd"/>
        </g>
      </g>
    </g>
  </g>
</svg>
