<svg xmlns="http://www.w3.org/2000/svg" width="109.552" height="109.563" viewBox="0 0 109.552 109.563">
  <g id="Group_515" data-name="Group 515" transform="translate(-19471.994 -5394.999)">
    <g id="broken-link" transform="translate(19471.994 5394.999)">
      <path id="Path_624" data-name="Path 624" d="M81.951,7.575a25.944,25.944,0,0,0-36.642,0L26.988,25.9a3.986,3.986,0,1,0,5.637,5.637L50.946,13.212A17.938,17.938,0,0,1,76.312,38.58L52.357,62.542a17.965,17.965,0,0,1-25.371,0,3.986,3.986,0,0,0-5.637,5.637,25.941,25.941,0,0,0,36.642,0L81.951,44.219a25.972,25.972,0,0,0,0-36.644Z" transform="translate(20.038 -0.001)" fill="#fff"/>
      <path id="Path_625" data-name="Path 625" d="M54.075,63.305l-15.5,15.5A17.938,17.938,0,0,1,13.2,53.439l22.55-22.55a18,18,0,0,1,25.367,0,3.986,3.986,0,0,0,5.637-5.637,25.943,25.943,0,0,0-36.642,0L7.565,47.8a25.909,25.909,0,0,0,36.642,36.64l15.5-15.5a3.985,3.985,0,0,0-5.635-5.637Z" transform="translate(-0.003 17.554)" fill="#fff"/>
      <path id="Path_626" data-name="Path 626" d="M35.989,44.007A3.988,3.988,0,0,0,32,47.993V59.952a3.986,3.986,0,0,0,7.973,0V47.993A3.985,3.985,0,0,0,35.989,44.007Z" transform="translate(31.777 43.703)" fill="#fff"/>
      <path id="Path_627" data-name="Path 627" d="M44.565,43.175a3.986,3.986,0,0,0-5.637,5.637l8.455,8.455A3.986,3.986,0,1,0,53.02,51.63Z" transform="translate(37.496 41.717)" fill="#fff"/>
      <path id="Path_628" data-name="Path 628" d="M53.913,36.007H41.954a3.986,3.986,0,1,0,0,7.973H53.913a3.986,3.986,0,1,0,0-7.973Z" transform="translate(37.701 35.758)" fill="#fff"/>
      <path id="Path_629" data-name="Path 629" d="M19.989,22.938a3.988,3.988,0,0,0,3.986-3.986V6.993a3.986,3.986,0,1,0-7.973,0V18.952A3.988,3.988,0,0,0,19.989,22.938Z" transform="translate(15.887 2.985)" fill="#fff"/>
      <path id="Path_630" data-name="Path 630" d="M15.384,22.025a3.986,3.986,0,0,0,5.637-5.637L12.565,7.932a3.986,3.986,0,1,0-5.637,5.637Z" transform="translate(5.716 6.716)" fill="#fff"/>
      <path id="Path_631" data-name="Path 631" d="M7.954,24.98H19.913a3.986,3.986,0,1,0,0-7.973H7.954a3.986,3.986,0,0,0,0,7.973Z" transform="translate(3.935 16.889)" fill="#fff"/>
    </g>
  </g>
</svg>
