<svg xmlns="http://www.w3.org/2000/svg" width="137" height="137" viewBox="0 0 137 137">
  <g id="Group_431" data-name="Group 431" transform="translate(-17431 -6109)">
    <g id="Ellipse_43" data-name="Ellipse 43" transform="translate(17431 6109)" fill="none" stroke="#00bbc6" stroke-width="5">
      <circle cx="68.5" cy="68.5" r="68.5" stroke="none"/>
      <circle cx="68.5" cy="68.5" r="66" fill="none"/>
    </g>
    <g id="pie-chart" transform="translate(17460.994 6138.994)">
      <g id="Group_430" data-name="Group 430" transform="translate(0 0)">
        <path id="Path_613" data-name="Path 613" d="M277.655,1.4A1.549,1.549,0,0,0,276.1,2.955V33.764a1.549,1.549,0,0,0,1.555,1.555h30.808a1.549,1.549,0,0,0,1.555-1.555A32.356,32.356,0,0,0,277.655,1.4Zm1.555,30.808V4.558a29.268,29.268,0,0,1,27.666,27.651Z" transform="translate(-232.723 -1.4)" fill="#00bbc6"/>
        <path id="Path_614" data-name="Path 614" d="M69.708,81.662a1.549,1.549,0,0,0-1.555-1.555H36.417V48.355A1.549,1.549,0,0,0,34.862,46.8,34.862,34.862,0,1,0,69.708,81.662ZM34.862,113.413a31.755,31.755,0,0,1-1.555-63.471v31.7A1.549,1.549,0,0,0,34.862,83.2h31.7A31.8,31.8,0,0,1,34.862,113.413Z" transform="translate(0 -39.667)" fill="#00bbc6"/>
      </g>
    </g>
  </g>
</svg>
