<svg xmlns="http://www.w3.org/2000/svg" width="117.91" height="133.304" viewBox="0 0 117.91 133.304">
  <g id="Group_516" data-name="Group 516" transform="translate(-18262.5 -6642.541)">
    <g id="timer" transform="translate(18263 6643.041)">
      <g id="Group_488" data-name="Group 488" transform="translate(0 43.652)">
        <g id="Group_487" data-name="Group 487" transform="translate(0)">
          <path id="Path_645" data-name="Path 645" d="M117.289,244.937a2.584,2.584,0,0,0-3.576-.755,50.983,50.983,0,0,1-70.068-71.224,2.584,2.584,0,0,0-4.284-2.891,56.152,56.152,0,0,0,77.173,78.445A2.584,2.584,0,0,0,117.289,244.937Z" transform="translate(-29.786 -168.929)" fill="#fff" stroke="#fff" stroke-width="1"/>
        </g>
      </g>
      <g id="Group_490" data-name="Group 490" transform="translate(91.694 111.086)">
        <g id="Group_489" data-name="Group 489">
          <path id="Path_646" data-name="Path 646" d="M389.12,430.628a2.585,2.585,0,0,0-3.655.036l-.086.087a2.584,2.584,0,1,0,3.669,3.64l.107-.108A2.584,2.584,0,0,0,389.12,430.628Z" transform="translate(-384.63 -429.889)" fill="#fff" stroke="#fff" stroke-width="1"/>
        </g>
      </g>
      <g id="Group_492" data-name="Group 492" transform="translate(24.112)">
        <g id="Group_491" data-name="Group 491">
          <path id="Path_647" data-name="Path 647" d="M205.636,42.35a2.584,2.584,0,0,0,3.654,0l4.3-4.3a7.877,7.877,0,0,0,0-11.126l-9.225-9.225a7.867,7.867,0,0,0-11.126,0l-4.3,4.3a2.584,2.584,0,0,0,0,3.654l1.222,1.222-3.1,3.1a55.494,55.494,0,0,0-21.858-9.054V16.539h5.685a2.584,2.584,0,0,0,2.584-2.584V2.584A2.584,2.584,0,0,0,170.892,0H139.366a2.584,2.584,0,0,0-2.584,2.584v11.37a2.584,2.584,0,0,0,2.584,2.584h5.685v4.384a55.806,55.806,0,0,0-20.791,8.337,2.584,2.584,0,1,0,2.845,4.315A50.985,50.985,0,0,1,198.45,103.04a2.584,2.584,0,1,0,4.389,2.729,56.2,56.2,0,0,0-1.521-61.544l3.1-3.1Zm-45.6-22.117c-1.624-.14-3.261-.214-4.91-.214s-3.284.073-4.91.214V16.539h9.82v3.694Zm-12.4-8.862H141.95v-6.2h26.358v6.2H147.635Zm50.513,28.715q-1.574-1.87-3.32-3.624t-3.624-3.32l2.612-2.612,6.944,6.944Zm-2.5-15.037h0l-1.22-1.22,2.477-2.477a2.7,2.7,0,0,1,3.817,0l9.225,9.225a2.7,2.7,0,0,1,0,3.817l-2.477,2.477-1.218-1.218,0,0Z" transform="translate(-123.097)" fill="#fff" stroke="#fff" stroke-width="1"/>
        </g>
      </g>
      <g id="Group_496" data-name="Group 496" transform="translate(77.631 49.505)">
        <g id="Group_495" data-name="Group 495" transform="translate(0)">
          <path id="Path_649" data-name="Path 649" d="M334.619,192.335a2.583,2.583,0,1,0,.757,1.827A2.6,2.6,0,0,0,334.619,192.335Z" transform="translate(-330.208 -191.578)" fill="#fff" stroke="#fff" stroke-width="1"/>
        </g>
      </g>
      <g id="Group_510" data-name="Group 510" transform="translate(47.357 55.228)">
        <g id="Group_509" data-name="Group 509">
          <path id="Path_656" data-name="Path 656" d="M242.016,214.482a2.584,2.584,0,0,0-3.165-.383L217.52,227.012a6.808,6.808,0,0,0-.772.493,8.782,8.782,0,1,0,12.227,12.271,6.177,6.177,0,0,0,.514-.8L242.4,217.647A2.585,2.585,0,0,0,242.016,214.482Zm-16.98,21.867-.213.352a3.616,3.616,0,1,1-5.025-5.027l.35-.212a3.614,3.614,0,0,1,4.888,4.886Zm4.038-6.67a8.852,8.852,0,0,0-2.255-2.255l5.715-3.46Z" transform="translate(-213.054 -213.725)" fill="#fff" stroke="#fff" stroke-width="1"/>
        </g>
      </g>
      <g id="Group_514" data-name="Group 514" transform="translate(15.846 35.548)">
        <g id="Group_513" data-name="Group 513">
          <path id="Path_658" data-name="Path 658" d="M95.519,138.322a2.583,2.583,0,1,0,.757,1.827A2.6,2.6,0,0,0,95.519,138.322Z" transform="translate(-91.108 -137.565)" fill="#fff" stroke="#fff" stroke-width="1"/>
        </g>
      </g>
    </g>
  </g>
</svg>
