<svg xmlns="http://www.w3.org/2000/svg" width="100.833" height="131.522" viewBox="0 0 100.833 131.522">
  <g id="result" transform="translate(-56)">
    <g id="Group_466" data-name="Group 466" transform="translate(56 0)">
      <g id="Group_465" data-name="Group 465">
        <path id="Path_632" data-name="Path 632" d="M154.643,8.768h-28.5V2.192A2.192,2.192,0,0,0,123.954,0H88.88a2.192,2.192,0,0,0-2.192,2.191h0V8.768h-28.5A2.192,2.192,0,0,0,56,10.959h0V129.33a2.192,2.192,0,0,0,2.191,2.192h96.451a2.192,2.192,0,0,0,2.192-2.191h0V10.96A2.192,2.192,0,0,0,154.643,8.768ZM91.073,4.384h30.688V17.536H91.073Zm61.377,122.754H60.384V13.152h26.3v6.576a2.192,2.192,0,0,0,2.191,2.192h35.074a2.192,2.192,0,0,0,2.192-2.191h0V13.152h26.3Z" transform="translate(-56 0)" fill="#fff"/>
      </g>
    </g>
    <g id="Group_468" data-name="Group 468" transform="translate(64.462 100.496)">
      <g id="Group_467" data-name="Group 467" transform="translate(0 0)">
        <rect id="Rectangle_174" data-name="Rectangle 174" width="49" height="5" transform="translate(-0.462 0.026)" fill="#fff"/>
      </g>
    </g>
    <g id="Group_470" data-name="Group 470" transform="translate(117.346 100.496)">
      <g id="Group_469" data-name="Group 469" transform="translate(0 0)">
        <rect id="Rectangle_175" data-name="Rectangle 175" width="31" height="5" transform="translate(-0.346 0.026)" fill="#fff"/>
      </g>
    </g>
    <g id="Group_472" data-name="Group 472" transform="translate(64.462 109.663)">
      <g id="Group_471" data-name="Group 471" transform="translate(0 0)">
        <rect id="Rectangle_176" data-name="Rectangle 176" width="84" height="4" transform="translate(-0.462 -0.141)" fill="#fff"/>
      </g>
    </g>
    <g id="Group_474" data-name="Group 474" transform="translate(64.462 118.125)">
      <g id="Group_473" data-name="Group 473" transform="translate(0 0)">
        <rect id="Rectangle_177" data-name="Rectangle 177" width="36" height="5" transform="translate(-0.462 0.397)" fill="#fff"/>
      </g>
    </g>
    <g id="Group_476" data-name="Group 476" transform="translate(103.949 118.125)">
      <g id="Group_475" data-name="Group 475" transform="translate(0 0)">
        <rect id="Rectangle_178" data-name="Rectangle 178" width="44" height="5" transform="translate(0.051 0.397)" fill="#fff"/>
      </g>
    </g>
    <g id="Group_478" data-name="Group 478" transform="translate(64.768 63.569)">
      <g id="Group_477" data-name="Group 477">
        <path id="Path_633" data-name="Path 633" d="M103.345,232H90.192A2.192,2.192,0,0,0,88,234.191h0v28.5a2.192,2.192,0,0,0,2.191,2.192h13.153a2.192,2.192,0,0,0,2.192-2.191h0v-28.5A2.192,2.192,0,0,0,103.345,232Zm-2.193,28.5H92.384V236.384h8.768Z" transform="translate(-88 -232)" fill="#fff"/>
      </g>
    </g>
    <g id="Group_480" data-name="Group 480" transform="translate(86.688 54.801)">
      <g id="Group_479" data-name="Group 479">
        <path id="Path_634" data-name="Path 634" d="M183.345,200H170.192A2.192,2.192,0,0,0,168,202.191h0v37.265a2.192,2.192,0,0,0,2.191,2.192h13.153a2.192,2.192,0,0,0,2.192-2.191h0V202.192A2.192,2.192,0,0,0,183.345,200Zm-2.193,37.265h-8.768v-32.88h8.768Z" transform="translate(-168 -200)" fill="#fff"/>
      </g>
    </g>
    <g id="Group_482" data-name="Group 482" transform="translate(108.609 46.033)">
      <g id="Group_481" data-name="Group 481" transform="translate(0)">
        <path id="Path_635" data-name="Path 635" d="M263.345,168H250.192A2.192,2.192,0,0,0,248,170.191h0v46.033a2.192,2.192,0,0,0,2.191,2.192h13.153a2.192,2.192,0,0,0,2.192-2.191h0V170.192A2.192,2.192,0,0,0,263.345,168Zm-2.193,46.033h-8.768V172.384h8.768Z" transform="translate(-248 -168)" fill="#fff"/>
      </g>
    </g>
    <g id="Group_484" data-name="Group 484" transform="translate(130.529 37.265)">
      <g id="Group_483" data-name="Group 483" transform="translate(0)">
        <path id="Path_636" data-name="Path 636" d="M343.345,136H330.192A2.192,2.192,0,0,0,328,138.191h0v54.8a2.192,2.192,0,0,0,2.191,2.192h13.153a2.192,2.192,0,0,0,2.192-2.191h0v-54.8A2.192,2.192,0,0,0,343.345,136Zm-2.193,54.8h-8.768V140.384h8.768Z" transform="translate(-328 -136)" fill="#fff"/>
      </g>
    </g>
    <g id="Group_486" data-name="Group 486" transform="translate(65.799 21.963)">
      <g id="Group_485" data-name="Group 485">
        <path id="Path_637" data-name="Path 637" d="M171.406,80.156l-21.92,4.384a2.194,2.194,0,0,0-.786.326L129.524,97.65H110.459a2.184,2.184,0,0,0-1.161.334l-17.536,10.96,2.323,3.716,17-10.626h19.1a2.2,2.2,0,0,0,1.216-.368l19.368-12.912,21.5-4.3Z" transform="translate(-91.762 -80.156)" fill="#fff"/>
      </g>
    </g>
  </g>
</svg>
