<svg xmlns="http://www.w3.org/2000/svg" width="134.911" height="134.92" viewBox="0 0 134.911 134.92">
  <g id="Group_452" data-name="Group 452" transform="translate(-16927 -6362)">
    <g id="magnifying-glass" transform="translate(16927 6362)">
      <path id="Path_617" data-name="Path 617" d="M90.1,15.437a52.8,52.8,0,1,0-7.219,80.645,11.115,11.115,0,0,0,3.016,5.595l29.974,29.974a11.153,11.153,0,1,0,15.772-15.772L101.665,85.9a11.152,11.152,0,0,0-5.591-3.007A52.847,52.847,0,0,0,90.1,15.437Zm-9.463,65.2a39.411,39.411,0,1,1,0-55.736A39.456,39.456,0,0,1,80.633,80.64Z" transform="translate(-0.001 0)" fill="#fff"/>
    </g>
    <g id="Group_451" data-name="Group 451" transform="translate(16944.039 6397.026)">
      <text id="SEO" transform="translate(34.961 29.974)" fill="#fff" font-size="33" font-family="Arial-BoldMT, Arial" font-weight="700"><tspan x="-34.845" y="0">SEO</tspan></text>
    </g>
  </g>
</svg>
