<svg xmlns="http://www.w3.org/2000/svg" width="144" height="144" viewBox="0 0 144 144">
  <g id="Group_517" data-name="Group 517" transform="translate(-18971 -6169.465)">
    <path id="Path_642" data-name="Path 642" d="M157.332,119.465a72,72,0,1,0,72,72A72,72,0,0,0,157.332,119.465Zm0,136.8a64.821,64.821,0,0,1-64.616-61.2h14.217v-7.2H92.716a64.276,64.276,0,0,1,6.839-25.6l12.323,7.113,3.6-6.234-12.335-7.121a65.218,65.218,0,0,1,18.745-18.745l7.121,12.333,6.236-3.6-7.111-12.323a64.286,64.286,0,0,1,25.6-6.841v14.213h7.2V126.85a64.251,64.251,0,0,1,25.6,6.841l-7.113,12.322,6.234,3.6,7.121-12.333a65.192,65.192,0,0,1,18.745,18.744l-12.333,7.121,3.6,6.236,12.323-7.114a64.285,64.285,0,0,1,6.841,25.6H207.731v7.2h14.217a64.82,64.82,0,0,1-64.616,61.2Zm0,0" transform="translate(18885.668 6050)" fill="#fff"/>
    <path id="Path_643" data-name="Path 643" d="M33.636,0,15.611,18.025a10.679,10.679,0,0,0-4.629-1.081,10.894,10.894,0,1,0,9.72,6.168L38.724,5.091ZM10.982,31.345a3.6,3.6,0,0,1,0-7.2,3.5,3.5,0,0,1,2.563,1.1,3.442,3.442,0,0,1,1.037,2.5,3.6,3.6,0,0,1-3.6,3.6Zm0,0" transform="translate(19016.563 6250.138) rotate(-87)" fill="#fff"/>
    <path id="Subtraction_62" data-name="Subtraction 62" d="M43.848,28.145a75.956,75.956,0,0,1-22.837-3.513A81.081,81.081,0,0,1,0,14.421c.953-.709,1.927-1.4,2.9-2.048a73.027,73.027,0,0,1,81.232-.126c1.114.743,2.225,1.529,3.3,2.336a81.14,81.14,0,0,1-20.9,10.09A75.82,75.82,0,0,1,43.848,28.145Z" transform="translate(18999.266 6278.533)" fill="#fff"/>
  </g>
</svg>
