<svg xmlns="http://www.w3.org/2000/svg" width="137" height="137" viewBox="0 0 137 137">
  <g id="Group_427" data-name="Group 427" transform="translate(-17228 -6109)">
    <g id="analytics" transform="translate(17253.469 6134.468)">
      <g id="Group_404" data-name="Group 404" transform="translate(0 82.612)">
        <g id="Group_403" data-name="Group 403">
          <path id="Path_601" data-name="Path 601" d="M84.408,490.667H1.8a1.8,1.8,0,1,0,0,3.592H84.408a1.8,1.8,0,1,0,0-3.592Z" transform="translate(0 -490.667)" fill="#52aceb"/>
        </g>
      </g>
      <g id="Group_406" data-name="Group 406" transform="translate(3.592 61.061)">
        <g id="Group_405" data-name="Group 405">
          <path id="Path_602" data-name="Path 602" d="M33.9,362.667H23.129a1.8,1.8,0,0,0-1.8,1.8v21.551a1.8,1.8,0,0,0,1.8,1.8H33.9a1.8,1.8,0,0,0,1.8-1.8V364.463A1.8,1.8,0,0,0,33.9,362.667Zm-1.8,21.551H24.925V366.259h7.184v17.959Z" transform="translate(-21.333 -362.667)" fill="#52aceb"/>
        </g>
      </g>
      <g id="Group_408" data-name="Group 408" transform="translate(25.143 43.102)">
        <g id="Group_407" data-name="Group 407">
          <path id="Path_603" data-name="Path 603" d="M161.9,256H151.129a1.8,1.8,0,0,0-1.8,1.8v39.51a1.8,1.8,0,0,0,1.8,1.8H161.9a1.8,1.8,0,0,0,1.8-1.8V257.8A1.8,1.8,0,0,0,161.9,256Zm-1.8,39.51h-7.184V259.592h7.184Z" transform="translate(-149.333 -256)" fill="#52aceb"/>
        </g>
      </g>
      <g id="Group_410" data-name="Group 410" transform="translate(46.694 50.285)">
        <g id="Group_409" data-name="Group 409">
          <path id="Path_604" data-name="Path 604" d="M289.9,298.667H279.129a1.8,1.8,0,0,0-1.8,1.8v32.326a1.8,1.8,0,0,0,1.8,1.8H289.9a1.8,1.8,0,0,0,1.8-1.8V300.463A1.8,1.8,0,0,0,289.9,298.667Zm-1.8,32.326h-7.184V302.259h7.184Z" transform="translate(-277.333 -298.667)" fill="#52aceb"/>
        </g>
      </g>
      <g id="Group_412" data-name="Group 412" transform="translate(68.244 28.735)">
        <g id="Group_411" data-name="Group 411">
          <path id="Path_605" data-name="Path 605" d="M417.9,170.667H407.129a1.8,1.8,0,0,0-1.8,1.8V226.34a1.8,1.8,0,0,0,1.8,1.8H417.9a1.8,1.8,0,0,0,1.8-1.8V172.463A1.8,1.8,0,0,0,417.9,170.667Zm-1.8,53.877h-7.184V174.259h7.184Z" transform="translate(-405.333 -170.667)" fill="#52aceb"/>
        </g>
      </g>
      <g id="Group_414" data-name="Group 414" transform="translate(3.592 32.326)">
        <g id="Group_413" data-name="Group 413">
          <path id="Path_606" data-name="Path 606" d="M28.517,192a7.184,7.184,0,1,0,7.184,7.184A7.191,7.191,0,0,0,28.517,192Zm0,10.775a3.592,3.592,0,1,1,3.592-3.592A3.6,3.6,0,0,1,28.517,202.775Z" transform="translate(-21.333 -192)" fill="#52aceb"/>
        </g>
      </g>
      <g id="Group_416" data-name="Group 416" transform="translate(25.143 14.367)">
        <g id="Group_415" data-name="Group 415">
          <path id="Path_607" data-name="Path 607" d="M156.517,85.333a7.184,7.184,0,1,0,7.184,7.184A7.191,7.191,0,0,0,156.517,85.333Zm0,10.775a3.592,3.592,0,1,1,3.592-3.592A3.6,3.6,0,0,1,156.517,96.108Z" transform="translate(-149.333 -85.333)" fill="#52aceb"/>
        </g>
      </g>
      <g id="Group_418" data-name="Group 418" transform="translate(46.694 21.551)">
        <g id="Group_417" data-name="Group 417">
          <path id="Path_608" data-name="Path 608" d="M284.517,128a7.184,7.184,0,1,0,7.184,7.184A7.191,7.191,0,0,0,284.517,128Zm0,10.775a3.592,3.592,0,1,1,3.592-3.592A3.6,3.6,0,0,1,284.517,138.775Z" transform="translate(-277.333 -128)" fill="#52aceb"/>
        </g>
      </g>
      <g id="Group_420" data-name="Group 420" transform="translate(68.244)">
        <g id="Group_419" data-name="Group 419">
          <path id="Path_609" data-name="Path 609" d="M412.517,0A7.184,7.184,0,1,0,419.7,7.184,7.191,7.191,0,0,0,412.517,0Zm0,10.775a3.592,3.592,0,1,1,3.592-3.592A3.6,3.6,0,0,1,412.517,10.775Z" transform="translate(-405.333)" fill="#52aceb"/>
        </g>
      </g>
      <g id="Group_422" data-name="Group 422" transform="translate(55.891 9.194)">
        <g id="Group_421" data-name="Group 421">
          <path id="Path_610" data-name="Path 610" d="M348.964,55.133a1.8,1.8,0,0,0-2.539,0L332.488,69.069a1.8,1.8,0,0,0,2.539,2.539l13.936-13.936A1.8,1.8,0,0,0,348.964,55.133Z" transform="translate(-331.963 -54.608)" fill="#52aceb"/>
        </g>
      </g>
      <g id="Group_424" data-name="Group 424" transform="translate(35.712 21.227)">
        <g id="Group_423" data-name="Group 423">
          <path id="Path_611" data-name="Path 611" d="M225.931,129.44l-11.537-3.29a1.8,1.8,0,0,0-.984,3.455l11.537,3.29a1.8,1.8,0,0,0,.984-3.455Z" transform="translate(-212.108 -126.078)" fill="#52aceb"/>
        </g>
      </g>
      <g id="Group_426" data-name="Group 426" transform="translate(12.785 23.112)">
        <g id="Group_425" data-name="Group 425">
          <path id="Path_612" data-name="Path 612" d="M92.675,137.95a1.8,1.8,0,0,0-2.521-.287l-13.541,10.8a1.8,1.8,0,0,0,1.121,3.2,1.813,1.813,0,0,0,1.117-.388l13.541-10.8A1.794,1.794,0,0,0,92.675,137.95Z" transform="translate(-75.935 -137.273)" fill="#52aceb"/>
        </g>
      </g>
    </g>
    <g id="Ellipse_43" data-name="Ellipse 43" transform="translate(17228 6109)" fill="none" stroke="#52aceb" stroke-width="5">
      <circle cx="68.5" cy="68.5" r="68.5" stroke="none"/>
      <circle cx="68.5" cy="68.5" r="66" fill="none"/>
    </g>
  </g>
</svg>
